<?xml version="1.0" encoding="UTF-8"?>
<svg id="Layer_1" data-name="Layer 1" xmlns="http://www.w3.org/2000/svg" viewBox="0 0 638 410.64">
  <defs>
    <style>
      .cls-1 {
        fill: #fd5001;
      }

      .cls-1, .cls-2, .cls-3, .cls-4 {
        fill-rule: evenodd;
      }

      .cls-2 {
        fill: #102a83;
      }

      .cls-3 {
        fill: #fefefe;
      }

      .cls-4 {
        fill: #f07c00;
      }
    </style>
  </defs>
  <path class="cls-2" d="M108.18,270.26c-13.03,1.54-99.45,46.09-108.18,53.86,30.35-7.43,55.61-20.79,91.81-26.64,10.6-3.47,30.1-5.47,42.5-4.84-3.17,11.86-30.23,52.98-37.83,62.96l-.08,41.29,49.06.84,65.93-107.47c76.7,3.05,157.82,32.73,224.91,63.09,10.06,4.55,24.42,10.52,32.02,15.78,9.19,6.39,12.69,18.87,20.92,28.1,21.92,1.46,28.68-3.42,46.64,6.97,20.88,12.11,18.45,8.22,67.3-20.83,11.77-7.01,24.72-12.82,34.82-20.92-9.1-13.78-84.42-43.46-101.46-57.07-9.27-2.13-38.54-14.65-44.59-22.04-14.95-18.04-160.62-264.08-174.52-280.61l-46.18,72.52c-16.2,25.84-30.35,48.56-45.68,73.65-15.49,25.34-30.23,49.39-45.63,73.69-27.47,43.34-12.73,25.59-71.77,47.68Z"/>
  <path class="cls-4" d="M108.18,270.26c59.04-22.09,44.3-4.34,71.77-47.68,15.41-24.3,30.14-48.35,45.63-73.69,15.32-25.09,29.48-47.81,45.68-73.65L317.43,2.71c13.9,16.53,159.57,262.57,174.52,280.61,6.05,7.39,35.32,19.92,44.59,22.04l-.04-304.66L97.99,0l-1.29,273.43c11.52-1.8,3.51-.04,11.48-3.17Z"/>
  <path class="cls-3" d="M246.25,237.9c104.09-3.88,102.54,11.44,151.47,14.28l-80.29-128.89c-.5.38-1.21.42-1.34,1.21l-17.33,25.93c-9.73,15.78-50.23,78.33-52.52,87.47Z"/>
  <path class="cls-1" d="M91.81,297.48c8.77-1.25,3.92.25,4.84,9.73.29,3.3-.29,12.98-.38,17.03-.04,10.48.17,20.92.21,31.36,7.6-9.98,34.65-51.1,37.83-62.96-12.4-.63-31.9,1.38-42.5,4.84Z"/>
</svg>