<?xml version="1.0" encoding="utf-8"?>
<!-- Generator: Adobe Illustrator 25.0.1, SVG Export Plug-In . SVG Version: 6.00 Build 0)  -->
<svg version="1.0" id="Layer_1" xmlns="http://www.w3.org/2000/svg" xmlns:xlink="http://www.w3.org/1999/xlink" x="0px" y="0px"
	 viewBox="0 0 356 260" style="enable-background:new 0 0 356 260;" xml:space="preserve">
<style type="text/css">
	.st0{fill-rule:evenodd;clip-rule:evenodd;fill:#EE7D22;}
	.st1{fill-rule:evenodd;clip-rule:evenodd;fill:#29367D;}
	.st2{fill-rule:evenodd;clip-rule:evenodd;fill:#FEFEFE;}
	.st3{fill-rule:evenodd;clip-rule:evenodd;fill:#F05423;}
	.st4{fill:none;}
</style>
<path class="st0" d="M119,133.6c16.5-6.2,12.4-1.2,20.1-13.3c4.3-6.8,8.4-13.5,12.8-20.6s8.3-13.4,12.8-20.6l12.9-20.2
	c3.9,4.6,44.6,73.4,48.8,78.5c1.7,2.1,9.9,5.6,12.5,6.1V58.2L116.2,58l-0.4,76.4C119,133.9,116.8,134.4,119,133.6z"/>
<path class="st1" d="M119,133.6c-3.7,0.4-27.8,12.9-30.2,15.1c8.5-2.1,15.5-5.8,25.6-7.4c3.9-1.1,7.9-1.5,11.9-1.4
	c-0.9,3.3-8.5,14.8-10.6,17.6V169l13.7,0.2l18.4-30c21.5,0.9,44.1,9.1,62.9,17.6c2.8,1.3,6.8,3,9,4.4c2.6,1.8,3.6,5.3,5.9,7.8
	c6.1,0.4,8-0.9,13,1.9c5.8,3.4,5.1,2.3,18.8-5.8c3.3-2,6.9-3.6,9.8-5.8c-2.6-3.8-23.6-12.1-28.4-16c-2.6-0.6-10.8-4.1-12.5-6.1
	c-4.2-5-44.9-73.8-48.8-78.5L164.7,79c-4.5,7.2-8.5,13.6-12.8,20.6s-8.4,13.8-12.8,20.6C131.4,132.3,135.5,127.4,119,133.6z"/>
<path class="st2" d="M157.6,124.5c29.1-1.1,28.7,3.2,42.3,4l-22.4-36c-0.1,0.1-0.3,0.1-0.4,0.3l-4.8,7.3
	C169.6,104.5,158.3,122,157.6,124.5z"/>
<path class="st3" d="M114.5,141.2c2.5-0.4,1.1,0,1.4,2.7c0.1,0.9-0.1,3.6-0.1,4.8c0,2.9,0,5.9,0,8.8c2.1-2.8,9.7-14.3,10.6-17.6
	C122.3,139.7,118.3,140.1,114.5,141.2z"/>
<path class="st1" d="M191.7,185.8c2.6,0.1,8.2,0.5,9.8-1.2c1.1-1.4,1.3-3.2,0.6-4.8c-1.3-2.8-6.8-2.2-10.3-2.1L191.7,185.8z
	 M191.7,198.2c5.5,0.3,11.7,1.1,11.8-4.4c0-5.8-6.7-4.9-11.7-4.7L191.7,198.2z M188.5,201.3c2.1,0.4,6.7,0.1,9.1,0.1
	c3,0,5.4-0.5,7.1-2.1c1.7-1.9,2.5-4.5,2.1-7c-0.3-2.4-2-4.4-4.2-5.1c0.7-0.9,2.8-1.8,3.1-5c0.2-2.3-0.6-4.5-2.3-6
	c-1.6-1.4-3.9-1.6-6.4-1.7c-2.4,0-6-0.2-8.3,0L188.5,201.3z"/>
<path class="st1" d="M164.7,184.5c-5.7,2-4.2,16.9,2.7,14.4C172.9,197,171.6,182.1,164.7,184.5z M170.5,183.9
	c-1.1-0.7-1.8-2-3.8-2.3c-9.4-1.4-11,14.5-4.6,19.1c4.9,3.4,8-1,8.6-1.4v2.1h2.7c0.3-3,0.4-24.9-0.1-26.9h-2.7L170.5,183.9z"/>
<path class="st1" d="M100.2,190.4h7.9l-4-12.4L100.2,190.4z M93.1,201.4l3.4,0.1l2.7-8.1h10.1l2.8,8.1h3.6l-9.8-26.9h-3.4
	L93.1,201.4z"/>
<path class="st1" d="M222,191.8c-3.7,0.8-8.2,1.1-8.9,3.6c-1,3.9,4,5.1,6.9,2.8C221.9,196.8,222.1,194.8,222,191.8z M213.2,187.9
	c0.6-2.6,1.7-3.8,4.8-3.7s4.1,1.5,3.9,4.6c-2.7,2.2-12.8-0.2-12.1,8c0.1,2.7,2.2,4.9,4.9,5c4.4,0.5,5.9-1.8,7.4-2.6l0.7,2.2h3
	c-0.4-1.6-0.7-3.2-0.8-4.8c-0.1-5.8,1-12.2-2.5-14.2s-11.1-1.2-12.1,4.2C210.4,187.4,209.7,187.6,213.2,187.9L213.2,187.9z"/>
<path class="st1" d="M142.8,189.8h9.6C152.6,182.4,143,182.5,142.8,189.8z M155.3,195.6l-2.8-0.4c-2.7,7.3-10.5,3.4-9.8-2.6h12.9
	c1.6-13.1-14.6-15.1-16-2.9c-0.7,5.7,1.1,10.4,5.5,11.9c2.4,0.8,4.9,0.5,7.1-0.7c1.3-0.9,2.3-2.1,2.9-3.6
	C155.4,196.5,155.5,196.1,155.3,195.6z"/>
<path class="st1" d="M248.5,201.4h3c0.3-5.9-1.1-7.7,2.1-9.8c0.8,0.6,4.9,8.2,5.8,9.7l3.6,0.1l-7.2-12.2l6.5-7.2
	c-4.1-0.1-3.5-0.7-8.3,5.2c-0.6,1-1.5,1.8-2.4,2.4v-15l-2.9-0.1L248.5,201.4z"/>
<path class="st1" d="M232.4,184.5l-0.1-2.5h-2.6l-0.1,19.4h3c0.2-7.4-1.7-16.6,4.3-17s3.5,8.8,4.1,17h2.9c0.3-2.9,0.3-14.6-0.5-16.6
	c-0.9-2.1-3-3.4-5.3-3.3C234.9,181.5,233.8,183,232.4,184.5z"/>
<path class="st1" d="M117.9,201.4h2.9v-26.9h-2.9c-0.5,2.3-0.1,10.5-0.1,13.4C117.8,192,117.5,197.5,117.9,201.4z"/>
<polygon class="st1" points="125.4,201.4 128.3,201.4 128.4,174.6 125.4,174.5 "/>
<polygon class="st1" points="133,201.3 135.9,201.4 136,182 133,182 "/>
<polygon class="st1" points="133,178.4 135.9,178.4 135.9,174.5 133,174.5 "/>
<rect x="84" y="53" class="st4" width="188" height="154"/>
</svg>
