<?xml version="1.0" encoding="utf-8"?>
<!-- Generator: Adobe Illustrator 14.0.0, SVG Export Plug-In . SVG Version: 6.00 Build 43363)  -->
<!DOCTYPE svg PUBLIC "-//W3C//DTD SVG 1.1//EN" "http://www.w3.org/Graphics/SVG/1.1/DTD/svg11.dtd">
<svg version="1.1" id="Layer_1" xmlns="http://www.w3.org/2000/svg" xmlns:xlink="http://www.w3.org/1999/xlink" x="0px" y="0px"
	 width="349.333px" height="101.333px" viewBox="-167 -51.667 349.333 101.333"
	 enable-background="new -167 -51.667 349.333 101.333" xml:space="preserve">
<g>
	<g>
		<path fill="#2C296E" d="M-144.118-13.197c0.692-0.234,0.925-1.864,0.692-2.56h-8.544v-3.026
			c-0.232-5.815,0.924-9.767,1.847-10.931c0.926-1.166,2.078-1.861,3.003-1.861c2.309,0,4.386,1.396,5.772,2.79
			c0.69,0.7,1.386,0.7,2.079,0c0.459-0.464,1.152-1.161,1.383-1.86c0.232-0.464,0.463-1.164-0.23-1.862
			c-1.385-1.393-3.464-2.557-5.31-2.557c-3.003,0.233-5.541,1.395-8.081,3.722c-3.696,3.258-4.849,6.744-5.312,8.143
			c-0.461,1.395-0.691,3.487-0.691,6.28v1.163h-3.233l-1.847,1.86l0.23,0.699h4.85V8.436c0,3.721-0.231,4.186-4.389,4.65v1.629
			h15.931v-1.629c-5.771-0.465-6.002-0.93-6.002-4.65v-21.633H-144.118"/>
		<path fill="#2C296E" d="M-129.342,8.898c-2.079,1.629-4.619,2.793-6.002,2.793c-2.079,0-4.618-1.861-4.618-5.583
			c0-2.325,1.152-3.722,3.462-5.118c1.385-0.697,5.54-2.558,7.158-3.255V8.898 M-118.72,12.156l-0.695-1.629
			c-1.153,0.699-2.306,0.932-2.769,0.932c-1.155,0-2.079-1.164-2.079-3.722V-8.079c0-2.56-0.232-5.118-2.539-6.748
			c-1.386-1.162-3.464-1.861-5.541-1.861c-4.848,0.932-9.005,3.722-10.62,4.886c-1.388,1.164-2.312,2.094-2.312,3.022
			c0,1.398,1.849,2.327,3.003,2.327c0.691,0,1.384-0.462,1.614-1.164c0.695-3.021,2.078-6.047,5.542-6.047
			c3.694,0,5.773,2.324,5.773,6.749v2.323c-2.079,1.628-7.849,3.489-11.315,4.885c-3.461,1.629-5.08,3.954-5.08,7.212
			c0,3.722,3.233,8.14,8.314,8.14c1.386,0,5.08-2.789,8.081-4.649c0.23,1.86,1.385,4.188,3.694,4.649L-118.72,12.156z"/>
		<path fill="#2C296E" d="M-109.949-15.757h-13.853v1.629c4.156,0.464,4.387,0.931,6.002,5.117
			c2.081,5.581,5.314,13.957,7.621,21.398c0.229,0.934,0.229,1.862,0,2.327c-0.23,0.931-1.154,3.022-2.076,5.117
			c-1.155,2.562-2.771,4.653-4.852,6.28c-0.92,0.699-1.846,1.396-1.846,2.328c0,1.627,1.615,3.256,3.464,3.256
			c0.693,0,1.846-0.467,2.078-1.86c1.155-3.724,2.771-8.144,7.388-19.076c4.388-10.467,6.928-16.281,8.773-19.771
			c2.079-4.187,2.31-4.421,6.004-5.117v-1.629h-12.238v1.629l2.542,0.231c1.615,0.232,1.847,0.93,0.922,3.023
			c-0.691,2.56-4.849,13.723-6.695,17.679l-6.003-17.444c-0.692-1.863-0.692-3.025,0.691-3.258l2.077-0.231L-109.949-15.757"/>
		<path fill="#2C296E" d="M-94.016,5.411c0,2.558,0.463,6.511,0.924,7.444c1.155,1.16,4.385,2.789,7.852,2.789
			c5.309,0,11.082-3.258,11.082-9.77c0-4.651-3.233-7.443-8.313-9.536c-3-1.162-6.003-3.255-6.003-6.049
			c0-2.326,1.387-4.886,4.618-4.886c2.54,0,4.849,1.628,6.926,6.281l1.616-0.467c-0.229-1.162-0.923-5.116-1.616-6.51
			c-1.385-0.699-3.231-1.398-5.771-1.398c-6.005,0-10.159,4.187-10.159,9.307c0,4.65,3.694,6.977,8.312,9.071
			c3.696,1.627,5.31,3.722,5.31,6.512c0,3.489-2.537,5.354-4.847,5.354c-4.157,0-7.158-4.657-8.313-8.609L-94.016,5.411"/>
		<path fill="#2C296E" d="M-56.151,8.898c-1.846,1.629-4.386,2.793-6,2.793c-1.848,0-4.39-1.861-4.39-5.583
			c0-2.325,1.155-3.722,3.464-5.118c1.386-0.697,5.543-2.558,6.926-3.255V8.898 M-45.299,12.156l-0.693-1.629
			c-1.152,0.699-2.308,0.932-2.769,0.932c-1.154,0-2.076-1.164-2.076-3.722V-8.079c0-2.56-0.232-5.118-2.542-6.748
			c-1.385-1.162-3.462-1.861-5.541-1.861c-4.849,0.932-9.004,3.722-10.622,4.886c-1.385,1.164-2.308,2.094-2.308,3.022
			c0,1.398,1.847,2.327,3,2.327c0.695,0,1.385-0.462,1.617-1.164c0.691-3.021,2.078-6.047,5.541-6.047
			c3.694,0,5.54,2.324,5.54,6.749v2.323c-1.846,1.628-7.617,3.489-11.081,4.885c-3.462,1.629-5.08,3.954-5.08,7.212
			c0,3.722,3.233,8.14,8.313,8.14c1.385,0,5.079-2.789,7.848-4.649c0.463,1.86,1.619,4.188,3.927,4.649L-45.299,12.156z"/>
		<path fill="#969CA1" d="M4.112,8.898c-1.847,1.629-4.388,2.793-6.004,2.793c-2.078,0-4.616-1.861-4.616-5.583
			c0-2.325,1.152-3.722,3.694-5.118c1.152-0.697,5.308-2.558,6.926-3.255V8.898 M14.734,12.156l-0.463-1.629
			c-1.383,0.699-2.541,0.932-3.002,0.932c-1.152,0-1.849-1.164-1.849-3.722V-8.079c0-2.56-0.461-5.118-2.77-6.748
			c-1.386-1.162-3.464-1.861-5.311-1.861c-5.081,0.932-9.005,3.722-10.62,4.886c-1.618,1.164-2.542,2.094-2.542,3.022
			c0,1.398,2.079,2.327,3.005,2.327c0.92,0,1.382-0.462,1.614-1.164c0.693-3.021,2.309-6.047,5.54-6.047
			c3.694,0,5.773,2.324,5.773,6.749v2.323C2.033-2.964-3.739-1.103-6.971,0.293c-3.694,1.629-5.309,3.954-5.309,7.212
			c0,3.722,3.233,8.14,8.31,8.14c1.387,0,5.083-2.789,8.082-4.649c0.463,1.86,1.385,4.188,3.694,4.649L14.734,12.156z"/>
		<path fill="#969CA1" d="M25.586-16.688c-3.695,1.164-6.926,2.094-10.16,2.792v1.165c4.619,0.696,4.619,0.696,4.619,4.883V8.436
			c0,3.951-0.23,4.186-5.082,4.65v1.629h15.012v-1.629c-4.158-0.465-4.389-0.699-4.389-4.65V-9.476
			c2.078-1.628,4.848-3.256,7.387-3.256c5.08,0,6.467,3.488,6.467,7.673V8.436c0,3.951-0.229,4.186-4.85,4.65v1.629h14.547v-1.629
			c-3.926-0.465-4.389-0.699-4.389-4.65V-7.151c0-5.58-2.998-9.537-8.771-9.537c-2.078,0-3.694,0.932-5.772,2.094
			c-1.845,1.163-3.466,2.093-4.617,3.026L25.586-16.688"/>
		<path fill="#969CA1" d="M57.91-35.064c-2.77,0.697-7.156,1.859-10.389,2.326v1.396c4.848,0.463,5.078,0.463,5.078,4.651V8.436
			c0,3.951-0.461,4.186-5.313,4.65v1.629H62.76v-1.629c-4.619-0.465-4.85-0.699-4.85-4.65v-8.609
			c0.463-0.231,0.926-0.231,1.154-0.231c0.463,0,0.926,0,2.078,1.396l5.77,6.747c1.85,2.324,4.391,5.818,5.314,6.978h8.771v-1.629
			l-1.615-0.23c-0.924-0.233-2.307-1.164-4.155-3.024C73.146,7.275,65.759-1.1,64.146-3.428c3.229-3.951,4.153-5.35,5.768-6.744
			c2.543-2.327,3.467-3.257,5.773-3.722l2.771-0.698v-1.629l-13.16,0.699v1.628l1.847,0.232c0.924,0,1.155,0.932,0.229,2.094
			c-1.383,2.093-3.922,5.814-5.078,6.977c-0.926,1.163-1.846,2.097-4.387,2.56L57.91-35.064"/>
		<path fill="#2C296E" d="M-36.985,11.459c0.463,0.928,1.848,1.396,5.31,1.627l-0.461,2.328c-3.927,0-6.928-0.699-10.622-2.559
			v-39.547c-0.002-4.188-0.002-4.418-4.849-4.651v-1.396c3.231-0.697,7.617-1.861,10.161-2.56V7.505
			C-37.446,8.668-37.216,10.76-36.985,11.459"/>
		<path fill="#969CA1" d="M-28.212,12.855c0.923,0,1.616-0.234,2.31-0.469c1.152-0.466,2.078-1.16,3.001-2.093
			c1.154-1.162,1.846-2.558,2.31-4.187c0.691-1.861,0.922-4.187,0.922-6.514c0-7.908-4.155-13.026-11.313-13.026
			c-1.155,0-2.308,0-3.231,0.465v-1.628l5.077-1.858c0.924-0.235,1.387-0.235,2.31-0.235c7.389,0.235,13.393,6.514,13.393,14.191
			c0,8.836-8.312,17.68-14.776,17.68v-2.326"/>
		<polyline fill="#2C296E" points="100.393,31.697 100.393,11.922 87,-1.802 100.393,-15.292 100.393,-35.066 120.02,-35.066 
			133.412,-48.791 146.803,-35.066 166.195,-35.066 166.195,-15.292 179.59,-1.802 166.195,11.922 166.195,31.697 146.803,31.697 
			133.412,45.42 120.02,31.697 100.393,31.697 		"/>
		<polygon fill="none" stroke="#FFFFFF" stroke-width="0.36" stroke-miterlimit="3" points="100.393,31.697 100.393,11.922 
			87,-1.802 100.393,-15.292 100.393,-35.066 120.02,-35.066 133.412,-48.791 146.803,-35.066 166.195,-35.066 166.195,-15.292 
			179.59,-1.802 166.195,11.922 166.195,31.697 146.803,31.697 133.412,45.42 120.02,31.697 		"/>
		<path fill="#FFFFFF" d="M127.176,17.273c-15.469,0-22.162-8.605-19.623-20.237c3.463-18.144,25.859-14.189,25.859-29.078
			c0,14.889,22.396,10.935,25.859,29.078c2.309,11.632-4.154,20.237-19.627,20.237H127.176"/>
		<g>
			<g>
				<defs>
					<polygon id="SVGID_1_" points="107.09,1.689 107.322,4.247 107.553,5.411 108.477,8.201 108.707,8.668 108.938,8.898 
						109.17,9.365 109.4,9.6 109.633,10.061 109.859,10.295 110.09,10.76 111.939,12.621 112.402,12.855 113.328,13.783 
						116.557,15.414 117.941,15.879 121.637,16.809 124.176,17.043 127.176,17.273 139.877,17.273 139.877,17.043 142.879,17.043 
						142.879,16.809 145.42,16.809 145.42,16.576 146.34,16.576 146.34,16.344 147.264,16.344 147.264,16.109 148.189,16.109 
						148.189,15.879 149.111,15.879 149.111,15.645 149.805,15.645 149.805,15.414 150.266,15.414 150.266,15.182 150.729,15.182 
						150.729,14.947 151.422,14.947 151.422,14.715 151.887,14.715 151.887,14.484 152.344,14.484 152.344,14.25 152.805,14.25 
						152.805,14.016 153.266,14.016 153.266,13.783 153.73,13.32 154.191,13.32 154.191,13.086 155.117,12.156 155.578,12.156 
						155.578,11.922 156.271,11.227 156.502,10.76 156.963,10.295 157.197,9.83 157.424,9.6 157.658,9.133 157.889,8.898 
						158.35,7.969 159.271,5.177 159.502,3.551 159.732,-0.872 159.502,-0.872 159.271,-2.964 158.814,-4.824 158.58,-5.523 
						158.35,-6.453 156.963,-9.245 156.732,-9.478 156.502,-9.942 156.271,-10.175 156.037,-10.641 155.809,-10.874 155.578,-11.34 
						153.266,-13.664 152.805,-13.896 152.113,-14.595 151.656,-14.827 151.422,-15.062 150.961,-15.292 150.729,-15.526 
						150.266,-15.759 150.037,-15.989 149.574,-16.224 149.344,-16.454 147.035,-17.619 146.803,-17.853 144.957,-18.783 
						144.725,-19.014 141.494,-20.642 141.264,-20.877 140.34,-21.341 140.107,-21.574 139.645,-21.807 139.414,-22.038 
						138.951,-22.271 138.721,-22.505 138.262,-22.737 137.568,-23.435 137.105,-23.667 136.643,-24.134 136.414,-24.599 
						135.488,-25.527 135.26,-25.994 135.029,-26.227 134.336,-27.623 133.643,-29.716 133.412,-32.042 133.18,-29.716 
						132.49,-27.623 131.793,-26.227 131.566,-25.994 131.332,-25.527 130.412,-24.599 130.178,-24.134 129.949,-23.901 
						129.949,-23.667 129.486,-23.667 128.797,-22.972 128.797,-22.737 128.334,-22.737 128.102,-22.505 128.102,-22.271 
						127.639,-22.271 127.41,-22.038 127.41,-21.807 126.947,-21.807 126.717,-21.574 126.717,-21.341 126.254,-21.341 
						126.254,-21.107 125.791,-21.107 125.563,-20.877 125.563,-20.642 125.1,-20.642 125.1,-20.412 124.639,-20.412 
						124.639,-20.178 124.176,-20.178 124.176,-19.945 123.713,-19.945 123.713,-19.713 123.252,-19.713 123.252,-19.479 
						122.793,-19.479 122.793,-19.25 122.33,-19.25 122.1,-19.014 122.1,-18.783 121.637,-18.783 121.637,-18.549 121.176,-18.549 
						121.176,-18.316 120.713,-18.316 120.713,-18.085 120.252,-18.085 120.02,-17.853 120.02,-17.619 119.557,-17.619 
						119.557,-17.386 119.098,-17.386 119.098,-17.153 118.637,-17.153 118.637,-16.921 118.174,-16.921 118.174,-16.69 
						117.711,-16.69 117.479,-16.454 117.479,-16.224 117.02,-16.224 116.787,-15.989 116.787,-15.759 116.324,-15.759 
						116.094,-15.526 116.094,-15.292 115.635,-15.292 115.404,-15.062 115.404,-14.827 114.941,-14.827 114.248,-14.13 
						114.248,-13.896 113.785,-13.896 111.246,-11.34 111.016,-10.874 110.785,-10.641 110.553,-10.175 110.322,-9.942 
						110.09,-9.478 109.859,-9.245 108.477,-6.453 108.244,-5.523 108.014,-4.824 107.553,-2.964 107.09,0.758 					"/>
				</defs>
				<clipPath id="SVGID_2_">
					<use xlink:href="#SVGID_1_"  overflow="visible"/>
				</clipPath>
				<path clip-path="url(#SVGID_2_)" fill="#969CA1" d="M146.572,8.668c0.691,0.465,6.002,4.188,8.773,2.326
					c1.616-0.934,2.772-3.025,2.772-5.583c0-4.886-2.082-4.653-2.312-4.421c-3.465,0.932-0.463,8.375-0.463,8.375
					s-2.08-3.489-3.232-6.516c0,0-1.614-4.419,1.849-5.116c0,0,4.619-0.465,6.231,6.98c0.461,2.791,0,6.046-2.534,8.143
					c-1.156,1.16-3.697,2.559-6.931,2.326c-3.002,0-4.846-2.097-8.541-2.795C142.188,12.387,146.34,8.668,146.572,8.668"/>
			</g>
			<g>
				<defs>
					<polygon id="SVGID_3_" points="107.09,1.689 107.322,4.247 107.553,5.411 108.477,8.201 108.707,8.668 108.938,8.898 
						109.17,9.365 109.4,9.6 109.633,10.061 109.859,10.295 110.09,10.76 111.939,12.621 112.402,12.855 113.328,13.783 
						116.557,15.414 117.941,15.879 121.637,16.809 124.176,17.043 127.176,17.273 139.877,17.273 139.877,17.043 142.879,17.043 
						142.879,16.809 145.42,16.809 145.42,16.576 146.34,16.576 146.34,16.344 147.264,16.344 147.264,16.109 148.189,16.109 
						148.189,15.879 149.111,15.879 149.111,15.645 149.805,15.645 149.805,15.414 150.266,15.414 150.266,15.182 150.729,15.182 
						150.729,14.947 151.422,14.947 151.422,14.715 151.887,14.715 151.887,14.484 152.344,14.484 152.344,14.25 152.805,14.25 
						152.805,14.016 153.266,14.016 153.266,13.783 153.73,13.32 154.191,13.32 154.191,13.086 155.117,12.156 155.578,12.156 
						155.578,11.922 156.271,11.227 156.502,10.76 156.963,10.295 157.197,9.83 157.424,9.6 157.658,9.133 157.889,8.898 
						158.35,7.969 159.271,5.177 159.502,3.551 159.732,-0.872 159.502,-0.872 159.271,-2.964 158.814,-4.824 158.58,-5.523 
						158.35,-6.453 156.963,-9.245 156.732,-9.478 156.502,-9.942 156.271,-10.175 156.037,-10.641 155.809,-10.874 155.578,-11.34 
						153.266,-13.664 152.805,-13.896 152.113,-14.595 151.656,-14.827 151.422,-15.062 150.961,-15.292 150.729,-15.526 
						150.266,-15.759 150.037,-15.989 149.574,-16.224 149.344,-16.454 147.035,-17.619 146.803,-17.853 144.957,-18.783 
						144.725,-19.014 141.494,-20.642 141.264,-20.877 140.34,-21.341 140.107,-21.574 139.645,-21.807 139.414,-22.038 
						138.951,-22.271 138.721,-22.505 138.262,-22.737 137.568,-23.435 137.105,-23.667 136.643,-24.134 136.414,-24.599 
						135.488,-25.527 135.26,-25.994 135.029,-26.227 134.336,-27.623 133.643,-29.716 133.412,-32.042 133.18,-29.716 
						132.49,-27.623 131.793,-26.227 131.566,-25.994 131.332,-25.527 130.412,-24.599 130.178,-24.134 129.949,-23.901 
						129.949,-23.667 129.486,-23.667 128.797,-22.972 128.797,-22.737 128.334,-22.737 128.102,-22.505 128.102,-22.271 
						127.639,-22.271 127.41,-22.038 127.41,-21.807 126.947,-21.807 126.717,-21.574 126.717,-21.341 126.254,-21.341 
						126.254,-21.107 125.791,-21.107 125.563,-20.877 125.563,-20.642 125.1,-20.642 125.1,-20.412 124.639,-20.412 
						124.639,-20.178 124.176,-20.178 124.176,-19.945 123.713,-19.945 123.713,-19.713 123.252,-19.713 123.252,-19.479 
						122.793,-19.479 122.793,-19.25 122.33,-19.25 122.1,-19.014 122.1,-18.783 121.637,-18.783 121.637,-18.549 121.176,-18.549 
						121.176,-18.316 120.713,-18.316 120.713,-18.085 120.252,-18.085 120.02,-17.853 120.02,-17.619 119.557,-17.619 
						119.557,-17.386 119.098,-17.386 119.098,-17.153 118.637,-17.153 118.637,-16.921 118.174,-16.921 118.174,-16.69 
						117.711,-16.69 117.479,-16.454 117.479,-16.224 117.02,-16.224 116.787,-15.989 116.787,-15.759 116.324,-15.759 
						116.094,-15.526 116.094,-15.292 115.635,-15.292 115.404,-15.062 115.404,-14.827 114.941,-14.827 114.248,-14.13 
						114.248,-13.896 113.785,-13.896 111.246,-11.34 111.016,-10.874 110.785,-10.641 110.553,-10.175 110.322,-9.942 
						110.09,-9.478 109.859,-9.245 108.477,-6.453 108.244,-5.523 108.014,-4.824 107.553,-2.964 107.09,0.758 					"/>
				</defs>
				<clipPath id="SVGID_4_">
					<use xlink:href="#SVGID_3_"  overflow="visible"/>
				</clipPath>
				<path clip-path="url(#SVGID_4_)" fill="none" stroke="#231F20" stroke-width="0.24" stroke-miterlimit="3" d="M146.572,8.668
					c0.691,0.465,6.002,4.188,8.773,2.326c1.616-0.934,2.772-3.025,2.772-5.583c0-4.886-2.082-4.653-2.312-4.421
					c-3.465,0.932-0.463,8.375-0.463,8.375s-2.08-3.489-3.232-6.516c0,0-1.614-4.419,1.849-5.116c0,0,4.619-0.465,6.231,6.98
					c0.461,2.791,0,6.046-2.534,8.143c-1.156,1.16-3.697,2.559-6.931,2.326c-3.002,0-4.846-2.097-8.541-2.795
					C142.188,12.387,146.34,8.668,146.572,8.668z"/>
			</g>
			<g>
				<defs>
					<polygon id="SVGID_5_" points="107.09,1.689 107.322,4.247 107.553,5.411 108.477,8.201 108.707,8.668 108.938,8.898 
						109.17,9.365 109.4,9.6 109.633,10.061 109.859,10.295 110.09,10.76 111.939,12.621 112.402,12.855 113.328,13.783 
						116.557,15.414 117.941,15.879 121.637,16.809 124.176,17.043 127.176,17.273 139.877,17.273 139.877,17.043 142.879,17.043 
						142.879,16.809 145.42,16.809 145.42,16.576 146.34,16.576 146.34,16.344 147.264,16.344 147.264,16.109 148.189,16.109 
						148.189,15.879 149.111,15.879 149.111,15.645 149.805,15.645 149.805,15.414 150.266,15.414 150.266,15.182 150.729,15.182 
						150.729,14.947 151.422,14.947 151.422,14.715 151.887,14.715 151.887,14.484 152.344,14.484 152.344,14.25 152.805,14.25 
						152.805,14.016 153.266,14.016 153.266,13.783 153.73,13.32 154.191,13.32 154.191,13.086 155.117,12.156 155.578,12.156 
						155.578,11.922 156.271,11.227 156.502,10.76 156.963,10.295 157.197,9.83 157.424,9.6 157.658,9.133 157.889,8.898 
						158.35,7.969 159.271,5.177 159.502,3.551 159.732,-0.872 159.502,-0.872 159.271,-2.964 158.814,-4.824 158.58,-5.523 
						158.35,-6.453 156.963,-9.245 156.732,-9.478 156.502,-9.942 156.271,-10.175 156.037,-10.641 155.809,-10.874 155.578,-11.34 
						153.266,-13.664 152.805,-13.896 152.113,-14.595 151.656,-14.827 151.422,-15.062 150.961,-15.292 150.729,-15.526 
						150.266,-15.759 150.037,-15.989 149.574,-16.224 149.344,-16.454 147.035,-17.619 146.803,-17.853 144.957,-18.783 
						144.725,-19.014 141.494,-20.642 141.264,-20.877 140.34,-21.341 140.107,-21.574 139.645,-21.807 139.414,-22.038 
						138.951,-22.271 138.721,-22.505 138.262,-22.737 137.568,-23.435 137.105,-23.667 136.643,-24.134 136.414,-24.599 
						135.488,-25.527 135.26,-25.994 135.029,-26.227 134.336,-27.623 133.643,-29.716 133.412,-32.042 133.18,-29.716 
						132.49,-27.623 131.793,-26.227 131.566,-25.994 131.332,-25.527 130.412,-24.599 130.178,-24.134 129.949,-23.901 
						129.949,-23.667 129.486,-23.667 128.797,-22.972 128.797,-22.737 128.334,-22.737 128.102,-22.505 128.102,-22.271 
						127.639,-22.271 127.41,-22.038 127.41,-21.807 126.947,-21.807 126.717,-21.574 126.717,-21.341 126.254,-21.341 
						126.254,-21.107 125.791,-21.107 125.563,-20.877 125.563,-20.642 125.1,-20.642 125.1,-20.412 124.639,-20.412 
						124.639,-20.178 124.176,-20.178 124.176,-19.945 123.713,-19.945 123.713,-19.713 123.252,-19.713 123.252,-19.479 
						122.793,-19.479 122.793,-19.25 122.33,-19.25 122.1,-19.014 122.1,-18.783 121.637,-18.783 121.637,-18.549 121.176,-18.549 
						121.176,-18.316 120.713,-18.316 120.713,-18.085 120.252,-18.085 120.02,-17.853 120.02,-17.619 119.557,-17.619 
						119.557,-17.386 119.098,-17.386 119.098,-17.153 118.637,-17.153 118.637,-16.921 118.174,-16.921 118.174,-16.69 
						117.711,-16.69 117.479,-16.454 117.479,-16.224 117.02,-16.224 116.787,-15.989 116.787,-15.759 116.324,-15.759 
						116.094,-15.526 116.094,-15.292 115.635,-15.292 115.404,-15.062 115.404,-14.827 114.941,-14.827 114.248,-14.13 
						114.248,-13.896 113.785,-13.896 111.246,-11.34 111.016,-10.874 110.785,-10.641 110.553,-10.175 110.322,-9.942 
						110.09,-9.478 109.859,-9.245 108.477,-6.453 108.244,-5.523 108.014,-4.824 107.553,-2.964 107.09,0.758 					"/>
				</defs>
				<clipPath id="SVGID_6_">
					<use xlink:href="#SVGID_5_"  overflow="visible"/>
				</clipPath>
				<path clip-path="url(#SVGID_6_)" fill="#969CA1" d="M153.035-4.824c0,0.93-0.691,1.86-1.844,1.86c-1.154,0-2.08-0.696-2.08-1.86
					c0-0.932,0.926-1.861,2.08-1.861C152.113-6.686,153.035-5.988,153.035-4.824"/>
			</g>
			<g>
				<defs>
					<polygon id="SVGID_7_" points="107.09,1.689 107.322,4.247 107.553,5.411 108.477,8.201 108.707,8.668 108.938,8.898 
						109.17,9.365 109.4,9.6 109.633,10.061 109.859,10.295 110.09,10.76 111.939,12.621 112.402,12.855 113.328,13.783 
						116.557,15.414 117.941,15.879 121.637,16.809 124.176,17.043 127.176,17.273 139.877,17.273 139.877,17.043 142.879,17.043 
						142.879,16.809 145.42,16.809 145.42,16.576 146.34,16.576 146.34,16.344 147.264,16.344 147.264,16.109 148.189,16.109 
						148.189,15.879 149.111,15.879 149.111,15.645 149.805,15.645 149.805,15.414 150.266,15.414 150.266,15.182 150.729,15.182 
						150.729,14.947 151.422,14.947 151.422,14.715 151.887,14.715 151.887,14.484 152.344,14.484 152.344,14.25 152.805,14.25 
						152.805,14.016 153.266,14.016 153.266,13.783 153.73,13.32 154.191,13.32 154.191,13.086 155.117,12.156 155.578,12.156 
						155.578,11.922 156.271,11.227 156.502,10.76 156.963,10.295 157.197,9.83 157.424,9.6 157.658,9.133 157.889,8.898 
						158.35,7.969 159.271,5.177 159.502,3.551 159.732,-0.872 159.502,-0.872 159.271,-2.964 158.814,-4.824 158.58,-5.523 
						158.35,-6.453 156.963,-9.245 156.732,-9.478 156.502,-9.942 156.271,-10.175 156.037,-10.641 155.809,-10.874 155.578,-11.34 
						153.266,-13.664 152.805,-13.896 152.113,-14.595 151.656,-14.827 151.422,-15.062 150.961,-15.292 150.729,-15.526 
						150.266,-15.759 150.037,-15.989 149.574,-16.224 149.344,-16.454 147.035,-17.619 146.803,-17.853 144.957,-18.783 
						144.725,-19.014 141.494,-20.642 141.264,-20.877 140.34,-21.341 140.107,-21.574 139.645,-21.807 139.414,-22.038 
						138.951,-22.271 138.721,-22.505 138.262,-22.737 137.568,-23.435 137.105,-23.667 136.643,-24.134 136.414,-24.599 
						135.488,-25.527 135.26,-25.994 135.029,-26.227 134.336,-27.623 133.643,-29.716 133.412,-32.042 133.18,-29.716 
						132.49,-27.623 131.793,-26.227 131.566,-25.994 131.332,-25.527 130.412,-24.599 130.178,-24.134 129.949,-23.901 
						129.949,-23.667 129.486,-23.667 128.797,-22.972 128.797,-22.737 128.334,-22.737 128.102,-22.505 128.102,-22.271 
						127.639,-22.271 127.41,-22.038 127.41,-21.807 126.947,-21.807 126.717,-21.574 126.717,-21.341 126.254,-21.341 
						126.254,-21.107 125.791,-21.107 125.563,-20.877 125.563,-20.642 125.1,-20.642 125.1,-20.412 124.639,-20.412 
						124.639,-20.178 124.176,-20.178 124.176,-19.945 123.713,-19.945 123.713,-19.713 123.252,-19.713 123.252,-19.479 
						122.793,-19.479 122.793,-19.25 122.33,-19.25 122.1,-19.014 122.1,-18.783 121.637,-18.783 121.637,-18.549 121.176,-18.549 
						121.176,-18.316 120.713,-18.316 120.713,-18.085 120.252,-18.085 120.02,-17.853 120.02,-17.619 119.557,-17.619 
						119.557,-17.386 119.098,-17.386 119.098,-17.153 118.637,-17.153 118.637,-16.921 118.174,-16.921 118.174,-16.69 
						117.711,-16.69 117.479,-16.454 117.479,-16.224 117.02,-16.224 116.787,-15.989 116.787,-15.759 116.324,-15.759 
						116.094,-15.526 116.094,-15.292 115.635,-15.292 115.404,-15.062 115.404,-14.827 114.941,-14.827 114.248,-14.13 
						114.248,-13.896 113.785,-13.896 111.246,-11.34 111.016,-10.874 110.785,-10.641 110.553,-10.175 110.322,-9.942 
						110.09,-9.478 109.859,-9.245 108.477,-6.453 108.244,-5.523 108.014,-4.824 107.553,-2.964 107.09,0.758 					"/>
				</defs>
				<clipPath id="SVGID_8_">
					<use xlink:href="#SVGID_7_"  overflow="visible"/>
				</clipPath>
				<path clip-path="url(#SVGID_8_)" fill="none" stroke="#231F20" stroke-width="0.24" stroke-miterlimit="3" d="M153.035-4.824
					c0,0.93-0.691,1.86-1.844,1.86c-1.154,0-2.08-0.696-2.08-1.86c0-0.932,0.926-1.861,2.08-1.861
					C152.113-6.686,153.035-5.988,153.035-4.824z"/>
			</g>
			<g>
				<defs>
					<polygon id="SVGID_9_" points="107.09,1.689 107.322,4.247 107.553,5.411 108.477,8.201 108.707,8.668 108.938,8.898 
						109.17,9.365 109.4,9.6 109.633,10.061 109.859,10.295 110.09,10.76 111.939,12.621 112.402,12.855 113.328,13.783 
						116.557,15.414 117.941,15.879 121.637,16.809 124.176,17.043 127.176,17.273 139.877,17.273 139.877,17.043 142.879,17.043 
						142.879,16.809 145.42,16.809 145.42,16.576 146.34,16.576 146.34,16.344 147.264,16.344 147.264,16.109 148.189,16.109 
						148.189,15.879 149.111,15.879 149.111,15.645 149.805,15.645 149.805,15.414 150.266,15.414 150.266,15.182 150.729,15.182 
						150.729,14.947 151.422,14.947 151.422,14.715 151.887,14.715 151.887,14.484 152.344,14.484 152.344,14.25 152.805,14.25 
						152.805,14.016 153.266,14.016 153.266,13.783 153.73,13.32 154.191,13.32 154.191,13.086 155.117,12.156 155.578,12.156 
						155.578,11.922 156.271,11.227 156.502,10.76 156.963,10.295 157.197,9.83 157.424,9.6 157.658,9.133 157.889,8.898 
						158.35,7.969 159.271,5.177 159.502,3.551 159.732,-0.872 159.502,-0.872 159.271,-2.964 158.814,-4.824 158.58,-5.523 
						158.35,-6.453 156.963,-9.245 156.732,-9.478 156.502,-9.942 156.271,-10.175 156.037,-10.641 155.809,-10.874 155.578,-11.34 
						153.266,-13.664 152.805,-13.896 152.113,-14.595 151.656,-14.827 151.422,-15.062 150.961,-15.292 150.729,-15.526 
						150.266,-15.759 150.037,-15.989 149.574,-16.224 149.344,-16.454 147.035,-17.619 146.803,-17.853 144.957,-18.783 
						144.725,-19.014 141.494,-20.642 141.264,-20.877 140.34,-21.341 140.107,-21.574 139.645,-21.807 139.414,-22.038 
						138.951,-22.271 138.721,-22.505 138.262,-22.737 137.568,-23.435 137.105,-23.667 136.643,-24.134 136.414,-24.599 
						135.488,-25.527 135.26,-25.994 135.029,-26.227 134.336,-27.623 133.643,-29.716 133.412,-32.042 133.18,-29.716 
						132.49,-27.623 131.793,-26.227 131.566,-25.994 131.332,-25.527 130.412,-24.599 130.178,-24.134 129.949,-23.901 
						129.949,-23.667 129.486,-23.667 128.797,-22.972 128.797,-22.737 128.334,-22.737 128.102,-22.505 128.102,-22.271 
						127.639,-22.271 127.41,-22.038 127.41,-21.807 126.947,-21.807 126.717,-21.574 126.717,-21.341 126.254,-21.341 
						126.254,-21.107 125.791,-21.107 125.563,-20.877 125.563,-20.642 125.1,-20.642 125.1,-20.412 124.639,-20.412 
						124.639,-20.178 124.176,-20.178 124.176,-19.945 123.713,-19.945 123.713,-19.713 123.252,-19.713 123.252,-19.479 
						122.793,-19.479 122.793,-19.25 122.33,-19.25 122.1,-19.014 122.1,-18.783 121.637,-18.783 121.637,-18.549 121.176,-18.549 
						121.176,-18.316 120.713,-18.316 120.713,-18.085 120.252,-18.085 120.02,-17.853 120.02,-17.619 119.557,-17.619 
						119.557,-17.386 119.098,-17.386 119.098,-17.153 118.637,-17.153 118.637,-16.921 118.174,-16.921 118.174,-16.69 
						117.711,-16.69 117.479,-16.454 117.479,-16.224 117.02,-16.224 116.787,-15.989 116.787,-15.759 116.324,-15.759 
						116.094,-15.526 116.094,-15.292 115.635,-15.292 115.404,-15.062 115.404,-14.827 114.941,-14.827 114.248,-14.13 
						114.248,-13.896 113.785,-13.896 111.246,-11.34 111.016,-10.874 110.785,-10.641 110.553,-10.175 110.322,-9.942 
						110.09,-9.478 109.859,-9.245 108.477,-6.453 108.244,-5.523 108.014,-4.824 107.553,-2.964 107.09,0.758 					"/>
				</defs>
				<clipPath id="SVGID_10_">
					<use xlink:href="#SVGID_9_"  overflow="visible"/>
				</clipPath>
				<path clip-path="url(#SVGID_10_)" fill="#969CA1" d="M145.42,15.414c0,0.93-0.924,1.859-1.85,1.859
					c-1.154,0-2.076-0.931-2.076-1.859c0-1.164,0.922-1.859,1.848-1.859C144.496,13.555,145.42,14.25,145.42,15.414"/>
			</g>
			<g>
				<defs>
					<polygon id="SVGID_11_" points="107.09,1.689 107.322,4.247 107.553,5.411 108.477,8.201 108.707,8.668 108.938,8.898 
						109.17,9.365 109.4,9.6 109.633,10.061 109.859,10.295 110.09,10.76 111.939,12.621 112.402,12.855 113.328,13.783 
						116.557,15.414 117.941,15.879 121.637,16.809 124.176,17.043 127.176,17.273 139.877,17.273 139.877,17.043 142.879,17.043 
						142.879,16.809 145.42,16.809 145.42,16.576 146.34,16.576 146.34,16.344 147.264,16.344 147.264,16.109 148.189,16.109 
						148.189,15.879 149.111,15.879 149.111,15.645 149.805,15.645 149.805,15.414 150.266,15.414 150.266,15.182 150.729,15.182 
						150.729,14.947 151.422,14.947 151.422,14.715 151.887,14.715 151.887,14.484 152.344,14.484 152.344,14.25 152.805,14.25 
						152.805,14.016 153.266,14.016 153.266,13.783 153.73,13.32 154.191,13.32 154.191,13.086 155.117,12.156 155.578,12.156 
						155.578,11.922 156.271,11.227 156.502,10.76 156.963,10.295 157.197,9.83 157.424,9.6 157.658,9.133 157.889,8.898 
						158.35,7.969 159.271,5.177 159.502,3.551 159.732,-0.872 159.502,-0.872 159.271,-2.964 158.814,-4.824 158.58,-5.523 
						158.35,-6.453 156.963,-9.245 156.732,-9.478 156.502,-9.942 156.271,-10.175 156.037,-10.641 155.809,-10.874 155.578,-11.34 
						153.266,-13.664 152.805,-13.896 152.113,-14.595 151.656,-14.827 151.422,-15.062 150.961,-15.292 150.729,-15.526 
						150.266,-15.759 150.037,-15.989 149.574,-16.224 149.344,-16.454 147.035,-17.619 146.803,-17.853 144.957,-18.783 
						144.725,-19.014 141.494,-20.642 141.264,-20.877 140.34,-21.341 140.107,-21.574 139.645,-21.807 139.414,-22.038 
						138.951,-22.271 138.721,-22.505 138.262,-22.737 137.568,-23.435 137.105,-23.667 136.643,-24.134 136.414,-24.599 
						135.488,-25.527 135.26,-25.994 135.029,-26.227 134.336,-27.623 133.643,-29.716 133.412,-32.042 133.18,-29.716 
						132.49,-27.623 131.793,-26.227 131.566,-25.994 131.332,-25.527 130.412,-24.599 130.178,-24.134 129.949,-23.901 
						129.949,-23.667 129.486,-23.667 128.797,-22.972 128.797,-22.737 128.334,-22.737 128.102,-22.505 128.102,-22.271 
						127.639,-22.271 127.41,-22.038 127.41,-21.807 126.947,-21.807 126.717,-21.574 126.717,-21.341 126.254,-21.341 
						126.254,-21.107 125.791,-21.107 125.563,-20.877 125.563,-20.642 125.1,-20.642 125.1,-20.412 124.639,-20.412 
						124.639,-20.178 124.176,-20.178 124.176,-19.945 123.713,-19.945 123.713,-19.713 123.252,-19.713 123.252,-19.479 
						122.793,-19.479 122.793,-19.25 122.33,-19.25 122.1,-19.014 122.1,-18.783 121.637,-18.783 121.637,-18.549 121.176,-18.549 
						121.176,-18.316 120.713,-18.316 120.713,-18.085 120.252,-18.085 120.02,-17.853 120.02,-17.619 119.557,-17.619 
						119.557,-17.386 119.098,-17.386 119.098,-17.153 118.637,-17.153 118.637,-16.921 118.174,-16.921 118.174,-16.69 
						117.711,-16.69 117.479,-16.454 117.479,-16.224 117.02,-16.224 116.787,-15.989 116.787,-15.759 116.324,-15.759 
						116.094,-15.526 116.094,-15.292 115.635,-15.292 115.404,-15.062 115.404,-14.827 114.941,-14.827 114.248,-14.13 
						114.248,-13.896 113.785,-13.896 111.246,-11.34 111.016,-10.874 110.785,-10.641 110.553,-10.175 110.322,-9.942 
						110.09,-9.478 109.859,-9.245 108.477,-6.453 108.244,-5.523 108.014,-4.824 107.553,-2.964 107.09,0.758 					"/>
				</defs>
				<clipPath id="SVGID_12_">
					<use xlink:href="#SVGID_11_"  overflow="visible"/>
				</clipPath>
				<path clip-path="url(#SVGID_12_)" fill="none" stroke="#231F20" stroke-width="0.24" stroke-miterlimit="3" d="M145.42,15.414
					c0,0.93-0.924,1.859-1.85,1.859c-1.154,0-2.076-0.931-2.076-1.859c0-1.164,0.922-1.859,1.848-1.859
					C144.496,13.555,145.42,14.25,145.42,15.414z"/>
			</g>
			<g>
				<defs>
					<polygon id="SVGID_13_" points="107.09,1.689 107.322,4.247 107.553,5.411 108.477,8.201 108.707,8.668 108.938,8.898 
						109.17,9.365 109.4,9.6 109.633,10.061 109.859,10.295 110.09,10.76 111.939,12.621 112.402,12.855 113.328,13.783 
						116.557,15.414 117.941,15.879 121.637,16.809 124.176,17.043 127.176,17.273 139.877,17.273 139.877,17.043 142.879,17.043 
						142.879,16.809 145.42,16.809 145.42,16.576 146.34,16.576 146.34,16.344 147.264,16.344 147.264,16.109 148.189,16.109 
						148.189,15.879 149.111,15.879 149.111,15.645 149.805,15.645 149.805,15.414 150.266,15.414 150.266,15.182 150.729,15.182 
						150.729,14.947 151.422,14.947 151.422,14.715 151.887,14.715 151.887,14.484 152.344,14.484 152.344,14.25 152.805,14.25 
						152.805,14.016 153.266,14.016 153.266,13.783 153.73,13.32 154.191,13.32 154.191,13.086 155.117,12.156 155.578,12.156 
						155.578,11.922 156.271,11.227 156.502,10.76 156.963,10.295 157.197,9.83 157.424,9.6 157.658,9.133 157.889,8.898 
						158.35,7.969 159.271,5.177 159.502,3.551 159.732,-0.872 159.502,-0.872 159.271,-2.964 158.814,-4.824 158.58,-5.523 
						158.35,-6.453 156.963,-9.245 156.732,-9.478 156.502,-9.942 156.271,-10.175 156.037,-10.641 155.809,-10.874 155.578,-11.34 
						153.266,-13.664 152.805,-13.896 152.113,-14.595 151.656,-14.827 151.422,-15.062 150.961,-15.292 150.729,-15.526 
						150.266,-15.759 150.037,-15.989 149.574,-16.224 149.344,-16.454 147.035,-17.619 146.803,-17.853 144.957,-18.783 
						144.725,-19.014 141.494,-20.642 141.264,-20.877 140.34,-21.341 140.107,-21.574 139.645,-21.807 139.414,-22.038 
						138.951,-22.271 138.721,-22.505 138.262,-22.737 137.568,-23.435 137.105,-23.667 136.643,-24.134 136.414,-24.599 
						135.488,-25.527 135.26,-25.994 135.029,-26.227 134.336,-27.623 133.643,-29.716 133.412,-32.042 133.18,-29.716 
						132.49,-27.623 131.793,-26.227 131.566,-25.994 131.332,-25.527 130.412,-24.599 130.178,-24.134 129.949,-23.901 
						129.949,-23.667 129.486,-23.667 128.797,-22.972 128.797,-22.737 128.334,-22.737 128.102,-22.505 128.102,-22.271 
						127.639,-22.271 127.41,-22.038 127.41,-21.807 126.947,-21.807 126.717,-21.574 126.717,-21.341 126.254,-21.341 
						126.254,-21.107 125.791,-21.107 125.563,-20.877 125.563,-20.642 125.1,-20.642 125.1,-20.412 124.639,-20.412 
						124.639,-20.178 124.176,-20.178 124.176,-19.945 123.713,-19.945 123.713,-19.713 123.252,-19.713 123.252,-19.479 
						122.793,-19.479 122.793,-19.25 122.33,-19.25 122.1,-19.014 122.1,-18.783 121.637,-18.783 121.637,-18.549 121.176,-18.549 
						121.176,-18.316 120.713,-18.316 120.713,-18.085 120.252,-18.085 120.02,-17.853 120.02,-17.619 119.557,-17.619 
						119.557,-17.386 119.098,-17.386 119.098,-17.153 118.637,-17.153 118.637,-16.921 118.174,-16.921 118.174,-16.69 
						117.711,-16.69 117.479,-16.454 117.479,-16.224 117.02,-16.224 116.787,-15.989 116.787,-15.759 116.324,-15.759 
						116.094,-15.526 116.094,-15.292 115.635,-15.292 115.404,-15.062 115.404,-14.827 114.941,-14.827 114.248,-14.13 
						114.248,-13.896 113.785,-13.896 111.246,-11.34 111.016,-10.874 110.785,-10.641 110.553,-10.175 110.322,-9.942 
						110.09,-9.478 109.859,-9.245 108.477,-6.453 108.244,-5.523 108.014,-4.824 107.553,-2.964 107.09,0.758 					"/>
				</defs>
				<clipPath id="SVGID_14_">
					<use xlink:href="#SVGID_13_"  overflow="visible"/>
				</clipPath>
				<path clip-path="url(#SVGID_14_)" fill="#969CA1" d="M149.805,15.414c0,0.93-0.924,1.859-1.846,1.859
					c-1.156,0-2.076-0.931-2.076-1.859c0-1.164,0.92-1.859,2.076-1.859C148.881,13.555,149.805,14.25,149.805,15.414"/>
			</g>
			<g>
				<defs>
					<polygon id="SVGID_15_" points="107.09,1.689 107.322,4.247 107.553,5.411 108.477,8.201 108.707,8.668 108.938,8.898 
						109.17,9.365 109.4,9.6 109.633,10.061 109.859,10.295 110.09,10.76 111.939,12.621 112.402,12.855 113.328,13.783 
						116.557,15.414 117.941,15.879 121.637,16.809 124.176,17.043 127.176,17.273 139.877,17.273 139.877,17.043 142.879,17.043 
						142.879,16.809 145.42,16.809 145.42,16.576 146.34,16.576 146.34,16.344 147.264,16.344 147.264,16.109 148.189,16.109 
						148.189,15.879 149.111,15.879 149.111,15.645 149.805,15.645 149.805,15.414 150.266,15.414 150.266,15.182 150.729,15.182 
						150.729,14.947 151.422,14.947 151.422,14.715 151.887,14.715 151.887,14.484 152.344,14.484 152.344,14.25 152.805,14.25 
						152.805,14.016 153.266,14.016 153.266,13.783 153.73,13.32 154.191,13.32 154.191,13.086 155.117,12.156 155.578,12.156 
						155.578,11.922 156.271,11.227 156.502,10.76 156.963,10.295 157.197,9.83 157.424,9.6 157.658,9.133 157.889,8.898 
						158.35,7.969 159.271,5.177 159.502,3.551 159.732,-0.872 159.502,-0.872 159.271,-2.964 158.814,-4.824 158.58,-5.523 
						158.35,-6.453 156.963,-9.245 156.732,-9.478 156.502,-9.942 156.271,-10.175 156.037,-10.641 155.809,-10.874 155.578,-11.34 
						153.266,-13.664 152.805,-13.896 152.113,-14.595 151.656,-14.827 151.422,-15.062 150.961,-15.292 150.729,-15.526 
						150.266,-15.759 150.037,-15.989 149.574,-16.224 149.344,-16.454 147.035,-17.619 146.803,-17.853 144.957,-18.783 
						144.725,-19.014 141.494,-20.642 141.264,-20.877 140.34,-21.341 140.107,-21.574 139.645,-21.807 139.414,-22.038 
						138.951,-22.271 138.721,-22.505 138.262,-22.737 137.568,-23.435 137.105,-23.667 136.643,-24.134 136.414,-24.599 
						135.488,-25.527 135.26,-25.994 135.029,-26.227 134.336,-27.623 133.643,-29.716 133.412,-32.042 133.18,-29.716 
						132.49,-27.623 131.793,-26.227 131.566,-25.994 131.332,-25.527 130.412,-24.599 130.178,-24.134 129.949,-23.901 
						129.949,-23.667 129.486,-23.667 128.797,-22.972 128.797,-22.737 128.334,-22.737 128.102,-22.505 128.102,-22.271 
						127.639,-22.271 127.41,-22.038 127.41,-21.807 126.947,-21.807 126.717,-21.574 126.717,-21.341 126.254,-21.341 
						126.254,-21.107 125.791,-21.107 125.563,-20.877 125.563,-20.642 125.1,-20.642 125.1,-20.412 124.639,-20.412 
						124.639,-20.178 124.176,-20.178 124.176,-19.945 123.713,-19.945 123.713,-19.713 123.252,-19.713 123.252,-19.479 
						122.793,-19.479 122.793,-19.25 122.33,-19.25 122.1,-19.014 122.1,-18.783 121.637,-18.783 121.637,-18.549 121.176,-18.549 
						121.176,-18.316 120.713,-18.316 120.713,-18.085 120.252,-18.085 120.02,-17.853 120.02,-17.619 119.557,-17.619 
						119.557,-17.386 119.098,-17.386 119.098,-17.153 118.637,-17.153 118.637,-16.921 118.174,-16.921 118.174,-16.69 
						117.711,-16.69 117.479,-16.454 117.479,-16.224 117.02,-16.224 116.787,-15.989 116.787,-15.759 116.324,-15.759 
						116.094,-15.526 116.094,-15.292 115.635,-15.292 115.404,-15.062 115.404,-14.827 114.941,-14.827 114.248,-14.13 
						114.248,-13.896 113.785,-13.896 111.246,-11.34 111.016,-10.874 110.785,-10.641 110.553,-10.175 110.322,-9.942 
						110.09,-9.478 109.859,-9.245 108.477,-6.453 108.244,-5.523 108.014,-4.824 107.553,-2.964 107.09,0.758 					"/>
				</defs>
				<clipPath id="SVGID_16_">
					<use xlink:href="#SVGID_15_"  overflow="visible"/>
				</clipPath>
				<path clip-path="url(#SVGID_16_)" fill="none" stroke="#231F20" stroke-width="0.24" stroke-miterlimit="3" d="M149.805,15.414
					c0,0.93-0.924,1.859-1.846,1.859c-1.156,0-2.076-0.931-2.076-1.859c0-1.164,0.92-1.859,2.076-1.859
					C148.881,13.555,149.805,14.25,149.805,15.414z"/>
			</g>
			<g>
				<defs>
					<polygon id="SVGID_17_" points="107.09,1.689 107.322,4.247 107.553,5.411 108.477,8.201 108.707,8.668 108.938,8.898 
						109.17,9.365 109.4,9.6 109.633,10.061 109.859,10.295 110.09,10.76 111.939,12.621 112.402,12.855 113.328,13.783 
						116.557,15.414 117.941,15.879 121.637,16.809 124.176,17.043 127.176,17.273 139.877,17.273 139.877,17.043 142.879,17.043 
						142.879,16.809 145.42,16.809 145.42,16.576 146.34,16.576 146.34,16.344 147.264,16.344 147.264,16.109 148.189,16.109 
						148.189,15.879 149.111,15.879 149.111,15.645 149.805,15.645 149.805,15.414 150.266,15.414 150.266,15.182 150.729,15.182 
						150.729,14.947 151.422,14.947 151.422,14.715 151.887,14.715 151.887,14.484 152.344,14.484 152.344,14.25 152.805,14.25 
						152.805,14.016 153.266,14.016 153.266,13.783 153.73,13.32 154.191,13.32 154.191,13.086 155.117,12.156 155.578,12.156 
						155.578,11.922 156.271,11.227 156.502,10.76 156.963,10.295 157.197,9.83 157.424,9.6 157.658,9.133 157.889,8.898 
						158.35,7.969 159.271,5.177 159.502,3.551 159.732,-0.872 159.502,-0.872 159.271,-2.964 158.814,-4.824 158.58,-5.523 
						158.35,-6.453 156.963,-9.245 156.732,-9.478 156.502,-9.942 156.271,-10.175 156.037,-10.641 155.809,-10.874 155.578,-11.34 
						153.266,-13.664 152.805,-13.896 152.113,-14.595 151.656,-14.827 151.422,-15.062 150.961,-15.292 150.729,-15.526 
						150.266,-15.759 150.037,-15.989 149.574,-16.224 149.344,-16.454 147.035,-17.619 146.803,-17.853 144.957,-18.783 
						144.725,-19.014 141.494,-20.642 141.264,-20.877 140.34,-21.341 140.107,-21.574 139.645,-21.807 139.414,-22.038 
						138.951,-22.271 138.721,-22.505 138.262,-22.737 137.568,-23.435 137.105,-23.667 136.643,-24.134 136.414,-24.599 
						135.488,-25.527 135.26,-25.994 135.029,-26.227 134.336,-27.623 133.643,-29.716 133.412,-32.042 133.18,-29.716 
						132.49,-27.623 131.793,-26.227 131.566,-25.994 131.332,-25.527 130.412,-24.599 130.178,-24.134 129.949,-23.901 
						129.949,-23.667 129.486,-23.667 128.797,-22.972 128.797,-22.737 128.334,-22.737 128.102,-22.505 128.102,-22.271 
						127.639,-22.271 127.41,-22.038 127.41,-21.807 126.947,-21.807 126.717,-21.574 126.717,-21.341 126.254,-21.341 
						126.254,-21.107 125.791,-21.107 125.563,-20.877 125.563,-20.642 125.1,-20.642 125.1,-20.412 124.639,-20.412 
						124.639,-20.178 124.176,-20.178 124.176,-19.945 123.713,-19.945 123.713,-19.713 123.252,-19.713 123.252,-19.479 
						122.793,-19.479 122.793,-19.25 122.33,-19.25 122.1,-19.014 122.1,-18.783 121.637,-18.783 121.637,-18.549 121.176,-18.549 
						121.176,-18.316 120.713,-18.316 120.713,-18.085 120.252,-18.085 120.02,-17.853 120.02,-17.619 119.557,-17.619 
						119.557,-17.386 119.098,-17.386 119.098,-17.153 118.637,-17.153 118.637,-16.921 118.174,-16.921 118.174,-16.69 
						117.711,-16.69 117.479,-16.454 117.479,-16.224 117.02,-16.224 116.787,-15.989 116.787,-15.759 116.324,-15.759 
						116.094,-15.526 116.094,-15.292 115.635,-15.292 115.404,-15.062 115.404,-14.827 114.941,-14.827 114.248,-14.13 
						114.248,-13.896 113.785,-13.896 111.246,-11.34 111.016,-10.874 110.785,-10.641 110.553,-10.175 110.322,-9.942 
						110.09,-9.478 109.859,-9.245 108.477,-6.453 108.244,-5.523 108.014,-4.824 107.553,-2.964 107.09,0.758 					"/>
				</defs>
				<clipPath id="SVGID_18_">
					<use xlink:href="#SVGID_17_"  overflow="visible"/>
				</clipPath>
				<path clip-path="url(#SVGID_18_)" fill="#969CA1" d="M123.252,3.316c-3.232-0.697-7.848-1.395-10.619,1.163
					c-1.154,1.164-1.848,3.025-1.387,4.653c0.693,2.095,2.539,2.789,4.615,2.56c2.313,0,4.621-1.164,6.697-1.861
					c3.926-1.629,14.084-6.746,24.014-0.932c-0.232,1.396-1.152,2.096-2.076,3.258c-4.619,0.23-11.777-3.258-21.244,1.398
					c-1.615,0.93-6.232,2.555-9.467,1.858c-4.615-1.164-10.391-9.306-6.695-14.424c2.08-2.792,6.238-3.257,9.234-2.093
					C119.098-0.174,121.406,1.225,123.252,3.316"/>
			</g>
			<g>
				<defs>
					<polygon id="SVGID_19_" points="107.09,1.689 107.322,4.247 107.553,5.411 108.477,8.201 108.707,8.668 108.938,8.898 
						109.17,9.365 109.4,9.6 109.633,10.061 109.859,10.295 110.09,10.76 111.939,12.621 112.402,12.855 113.328,13.783 
						116.557,15.414 117.941,15.879 121.637,16.809 124.176,17.043 127.176,17.273 139.877,17.273 139.877,17.043 142.879,17.043 
						142.879,16.809 145.42,16.809 145.42,16.576 146.34,16.576 146.34,16.344 147.264,16.344 147.264,16.109 148.189,16.109 
						148.189,15.879 149.111,15.879 149.111,15.645 149.805,15.645 149.805,15.414 150.266,15.414 150.266,15.182 150.729,15.182 
						150.729,14.947 151.422,14.947 151.422,14.715 151.887,14.715 151.887,14.484 152.344,14.484 152.344,14.25 152.805,14.25 
						152.805,14.016 153.266,14.016 153.266,13.783 153.73,13.32 154.191,13.32 154.191,13.086 155.117,12.156 155.578,12.156 
						155.578,11.922 156.271,11.227 156.502,10.76 156.963,10.295 157.197,9.83 157.424,9.6 157.658,9.133 157.889,8.898 
						158.35,7.969 159.271,5.177 159.502,3.551 159.732,-0.872 159.502,-0.872 159.271,-2.964 158.814,-4.824 158.58,-5.523 
						158.35,-6.453 156.963,-9.245 156.732,-9.478 156.502,-9.942 156.271,-10.175 156.037,-10.641 155.809,-10.874 155.578,-11.34 
						153.266,-13.664 152.805,-13.896 152.113,-14.595 151.656,-14.827 151.422,-15.062 150.961,-15.292 150.729,-15.526 
						150.266,-15.759 150.037,-15.989 149.574,-16.224 149.344,-16.454 147.035,-17.619 146.803,-17.853 144.957,-18.783 
						144.725,-19.014 141.494,-20.642 141.264,-20.877 140.34,-21.341 140.107,-21.574 139.645,-21.807 139.414,-22.038 
						138.951,-22.271 138.721,-22.505 138.262,-22.737 137.568,-23.435 137.105,-23.667 136.643,-24.134 136.414,-24.599 
						135.488,-25.527 135.26,-25.994 135.029,-26.227 134.336,-27.623 133.643,-29.716 133.412,-32.042 133.18,-29.716 
						132.49,-27.623 131.793,-26.227 131.566,-25.994 131.332,-25.527 130.412,-24.599 130.178,-24.134 129.949,-23.901 
						129.949,-23.667 129.486,-23.667 128.797,-22.972 128.797,-22.737 128.334,-22.737 128.102,-22.505 128.102,-22.271 
						127.639,-22.271 127.41,-22.038 127.41,-21.807 126.947,-21.807 126.717,-21.574 126.717,-21.341 126.254,-21.341 
						126.254,-21.107 125.791,-21.107 125.563,-20.877 125.563,-20.642 125.1,-20.642 125.1,-20.412 124.639,-20.412 
						124.639,-20.178 124.176,-20.178 124.176,-19.945 123.713,-19.945 123.713,-19.713 123.252,-19.713 123.252,-19.479 
						122.793,-19.479 122.793,-19.25 122.33,-19.25 122.1,-19.014 122.1,-18.783 121.637,-18.783 121.637,-18.549 121.176,-18.549 
						121.176,-18.316 120.713,-18.316 120.713,-18.085 120.252,-18.085 120.02,-17.853 120.02,-17.619 119.557,-17.619 
						119.557,-17.386 119.098,-17.386 119.098,-17.153 118.637,-17.153 118.637,-16.921 118.174,-16.921 118.174,-16.69 
						117.711,-16.69 117.479,-16.454 117.479,-16.224 117.02,-16.224 116.787,-15.989 116.787,-15.759 116.324,-15.759 
						116.094,-15.526 116.094,-15.292 115.635,-15.292 115.404,-15.062 115.404,-14.827 114.941,-14.827 114.248,-14.13 
						114.248,-13.896 113.785,-13.896 111.246,-11.34 111.016,-10.874 110.785,-10.641 110.553,-10.175 110.322,-9.942 
						110.09,-9.478 109.859,-9.245 108.477,-6.453 108.244,-5.523 108.014,-4.824 107.553,-2.964 107.09,0.758 					"/>
				</defs>
				<clipPath id="SVGID_20_">
					<use xlink:href="#SVGID_19_"  overflow="visible"/>
				</clipPath>
				<path clip-path="url(#SVGID_20_)" fill="none" stroke="#231F20" stroke-width="0.24" stroke-miterlimit="3" d="M123.252,3.316
					c-3.232-0.697-7.848-1.395-10.619,1.163c-1.154,1.164-1.848,3.025-1.387,4.653c0.693,2.095,2.539,2.789,4.615,2.56
					c2.313,0,4.621-1.164,6.697-1.861c3.926-1.629,14.084-6.746,24.014-0.932c-0.232,1.396-1.152,2.096-2.076,3.258
					c-4.619,0.23-11.777-3.258-21.244,1.398c-1.615,0.93-6.232,2.555-9.467,1.858c-4.615-1.164-10.391-9.306-6.695-14.424
					c2.08-2.792,6.238-3.257,9.234-2.093C119.098-0.174,121.406,1.225,123.252,3.316z"/>
			</g>
			<g>
				<defs>
					<polygon id="SVGID_21_" points="107.09,1.689 107.322,4.247 107.553,5.411 108.477,8.201 108.707,8.668 108.938,8.898 
						109.17,9.365 109.4,9.6 109.633,10.061 109.859,10.295 110.09,10.76 111.939,12.621 112.402,12.855 113.328,13.783 
						116.557,15.414 117.941,15.879 121.637,16.809 124.176,17.043 127.176,17.273 139.877,17.273 139.877,17.043 142.879,17.043 
						142.879,16.809 145.42,16.809 145.42,16.576 146.34,16.576 146.34,16.344 147.264,16.344 147.264,16.109 148.189,16.109 
						148.189,15.879 149.111,15.879 149.111,15.645 149.805,15.645 149.805,15.414 150.266,15.414 150.266,15.182 150.729,15.182 
						150.729,14.947 151.422,14.947 151.422,14.715 151.887,14.715 151.887,14.484 152.344,14.484 152.344,14.25 152.805,14.25 
						152.805,14.016 153.266,14.016 153.266,13.783 153.73,13.32 154.191,13.32 154.191,13.086 155.117,12.156 155.578,12.156 
						155.578,11.922 156.271,11.227 156.502,10.76 156.963,10.295 157.197,9.83 157.424,9.6 157.658,9.133 157.889,8.898 
						158.35,7.969 159.271,5.177 159.502,3.551 159.732,-0.872 159.502,-0.872 159.271,-2.964 158.814,-4.824 158.58,-5.523 
						158.35,-6.453 156.963,-9.245 156.732,-9.478 156.502,-9.942 156.271,-10.175 156.037,-10.641 155.809,-10.874 155.578,-11.34 
						153.266,-13.664 152.805,-13.896 152.113,-14.595 151.656,-14.827 151.422,-15.062 150.961,-15.292 150.729,-15.526 
						150.266,-15.759 150.037,-15.989 149.574,-16.224 149.344,-16.454 147.035,-17.619 146.803,-17.853 144.957,-18.783 
						144.725,-19.014 141.494,-20.642 141.264,-20.877 140.34,-21.341 140.107,-21.574 139.645,-21.807 139.414,-22.038 
						138.951,-22.271 138.721,-22.505 138.262,-22.737 137.568,-23.435 137.105,-23.667 136.643,-24.134 136.414,-24.599 
						135.488,-25.527 135.26,-25.994 135.029,-26.227 134.336,-27.623 133.643,-29.716 133.412,-32.042 133.18,-29.716 
						132.49,-27.623 131.793,-26.227 131.566,-25.994 131.332,-25.527 130.412,-24.599 130.178,-24.134 129.949,-23.901 
						129.949,-23.667 129.486,-23.667 128.797,-22.972 128.797,-22.737 128.334,-22.737 128.102,-22.505 128.102,-22.271 
						127.639,-22.271 127.41,-22.038 127.41,-21.807 126.947,-21.807 126.717,-21.574 126.717,-21.341 126.254,-21.341 
						126.254,-21.107 125.791,-21.107 125.563,-20.877 125.563,-20.642 125.1,-20.642 125.1,-20.412 124.639,-20.412 
						124.639,-20.178 124.176,-20.178 124.176,-19.945 123.713,-19.945 123.713,-19.713 123.252,-19.713 123.252,-19.479 
						122.793,-19.479 122.793,-19.25 122.33,-19.25 122.1,-19.014 122.1,-18.783 121.637,-18.783 121.637,-18.549 121.176,-18.549 
						121.176,-18.316 120.713,-18.316 120.713,-18.085 120.252,-18.085 120.02,-17.853 120.02,-17.619 119.557,-17.619 
						119.557,-17.386 119.098,-17.386 119.098,-17.153 118.637,-17.153 118.637,-16.921 118.174,-16.921 118.174,-16.69 
						117.711,-16.69 117.479,-16.454 117.479,-16.224 117.02,-16.224 116.787,-15.989 116.787,-15.759 116.324,-15.759 
						116.094,-15.526 116.094,-15.292 115.635,-15.292 115.404,-15.062 115.404,-14.827 114.941,-14.827 114.248,-14.13 
						114.248,-13.896 113.785,-13.896 111.246,-11.34 111.016,-10.874 110.785,-10.641 110.553,-10.175 110.322,-9.942 
						110.09,-9.478 109.859,-9.245 108.477,-6.453 108.244,-5.523 108.014,-4.824 107.553,-2.964 107.09,0.758 					"/>
				</defs>
				<clipPath id="SVGID_22_">
					<use xlink:href="#SVGID_21_"  overflow="visible"/>
				</clipPath>
				<path clip-path="url(#SVGID_22_)" fill="#969CA1" d="M144.033,1.922c-5.313-0.697-12.93,8.139-12.93,8.373
					c11.774-17.213,16.395-13.726,16.395-13.726c1.154,0.467,2.076,1.396,2.076,2.793c0.23,2.095-0.693,5.352-1.385,7.443
					c-5.312,13.026-14.314,14.425-25.859,10.702c-4.156-1.164-8.545-1.397-14.086,2.56c4.621-8.146,11.313-6.98,14.777-6.746
					c7.391,0.695,16.854,0.463,20.319-3.955C148.881,2.619,144.033,1.922,144.033,1.922"/>
			</g>
			<g>
				<defs>
					<polygon id="SVGID_23_" points="107.09,1.689 107.322,4.247 107.553,5.411 108.477,8.201 108.707,8.668 108.938,8.898 
						109.17,9.365 109.4,9.6 109.633,10.061 109.859,10.295 110.09,10.76 111.939,12.621 112.402,12.855 113.328,13.783 
						116.557,15.414 117.941,15.879 121.637,16.809 124.176,17.043 127.176,17.273 139.877,17.273 139.877,17.043 142.879,17.043 
						142.879,16.809 145.42,16.809 145.42,16.576 146.34,16.576 146.34,16.344 147.264,16.344 147.264,16.109 148.189,16.109 
						148.189,15.879 149.111,15.879 149.111,15.645 149.805,15.645 149.805,15.414 150.266,15.414 150.266,15.182 150.729,15.182 
						150.729,14.947 151.422,14.947 151.422,14.715 151.887,14.715 151.887,14.484 152.344,14.484 152.344,14.25 152.805,14.25 
						152.805,14.016 153.266,14.016 153.266,13.783 153.73,13.32 154.191,13.32 154.191,13.086 155.117,12.156 155.578,12.156 
						155.578,11.922 156.271,11.227 156.502,10.76 156.963,10.295 157.197,9.83 157.424,9.6 157.658,9.133 157.889,8.898 
						158.35,7.969 159.271,5.177 159.502,3.551 159.732,-0.872 159.502,-0.872 159.271,-2.964 158.814,-4.824 158.58,-5.523 
						158.35,-6.453 156.963,-9.245 156.732,-9.478 156.502,-9.942 156.271,-10.175 156.037,-10.641 155.809,-10.874 155.578,-11.34 
						153.266,-13.664 152.805,-13.896 152.113,-14.595 151.656,-14.827 151.422,-15.062 150.961,-15.292 150.729,-15.526 
						150.266,-15.759 150.037,-15.989 149.574,-16.224 149.344,-16.454 147.035,-17.619 146.803,-17.853 144.957,-18.783 
						144.725,-19.014 141.494,-20.642 141.264,-20.877 140.34,-21.341 140.107,-21.574 139.645,-21.807 139.414,-22.038 
						138.951,-22.271 138.721,-22.505 138.262,-22.737 137.568,-23.435 137.105,-23.667 136.643,-24.134 136.414,-24.599 
						135.488,-25.527 135.26,-25.994 135.029,-26.227 134.336,-27.623 133.643,-29.716 133.412,-32.042 133.18,-29.716 
						132.49,-27.623 131.793,-26.227 131.566,-25.994 131.332,-25.527 130.412,-24.599 130.178,-24.134 129.949,-23.901 
						129.949,-23.667 129.486,-23.667 128.797,-22.972 128.797,-22.737 128.334,-22.737 128.102,-22.505 128.102,-22.271 
						127.639,-22.271 127.41,-22.038 127.41,-21.807 126.947,-21.807 126.717,-21.574 126.717,-21.341 126.254,-21.341 
						126.254,-21.107 125.791,-21.107 125.563,-20.877 125.563,-20.642 125.1,-20.642 125.1,-20.412 124.639,-20.412 
						124.639,-20.178 124.176,-20.178 124.176,-19.945 123.713,-19.945 123.713,-19.713 123.252,-19.713 123.252,-19.479 
						122.793,-19.479 122.793,-19.25 122.33,-19.25 122.1,-19.014 122.1,-18.783 121.637,-18.783 121.637,-18.549 121.176,-18.549 
						121.176,-18.316 120.713,-18.316 120.713,-18.085 120.252,-18.085 120.02,-17.853 120.02,-17.619 119.557,-17.619 
						119.557,-17.386 119.098,-17.386 119.098,-17.153 118.637,-17.153 118.637,-16.921 118.174,-16.921 118.174,-16.69 
						117.711,-16.69 117.479,-16.454 117.479,-16.224 117.02,-16.224 116.787,-15.989 116.787,-15.759 116.324,-15.759 
						116.094,-15.526 116.094,-15.292 115.635,-15.292 115.404,-15.062 115.404,-14.827 114.941,-14.827 114.248,-14.13 
						114.248,-13.896 113.785,-13.896 111.246,-11.34 111.016,-10.874 110.785,-10.641 110.553,-10.175 110.322,-9.942 
						110.09,-9.478 109.859,-9.245 108.477,-6.453 108.244,-5.523 108.014,-4.824 107.553,-2.964 107.09,0.758 					"/>
				</defs>
				<clipPath id="SVGID_24_">
					<use xlink:href="#SVGID_23_"  overflow="visible"/>
				</clipPath>
				<path clip-path="url(#SVGID_24_)" fill="none" stroke="#231F20" stroke-width="0.24" stroke-miterlimit="3" d="M144.033,1.922
					c-5.313-0.697-12.93,8.139-12.93,8.373c11.774-17.213,16.395-13.726,16.395-13.726c1.154,0.467,2.076,1.396,2.076,2.793
					c0.23,2.095-0.693,5.352-1.385,7.443c-5.312,13.026-14.314,14.425-25.859,10.702c-4.156-1.164-8.545-1.397-14.086,2.56
					c4.621-8.146,11.313-6.98,14.777-6.746c7.391,0.695,16.854,0.463,20.319-3.955C148.881,2.619,144.033,1.922,144.033,1.922z"/>
			</g>
		</g>
		<path fill="none" stroke="#231F20" stroke-width="0.24" stroke-miterlimit="3" d="M127.176,17.273
			c-15.469,0-22.162-8.605-19.623-20.237c3.463-18.144,25.859-14.189,25.859-29.078c0,14.889,22.396,10.935,25.859,29.078
			c2.309,11.632-4.154,20.237-19.627,20.237H127.176z"/>
	</g>
</g>
</svg>
