<?xml version="1.0" encoding="UTF-8"?>
<svg id="Layer_1" data-name="Layer 1" xmlns="http://www.w3.org/2000/svg" xmlns:xlink="http://www.w3.org/1999/xlink" viewBox="0 0 638 638">
  <defs>
    <style>
      .cls-1 {
        fill: #727678;
      }

      .cls-1, .cls-2 {
        stroke: #000;
        stroke-miterlimit: 2.61;
        stroke-width: .5px;
      }

      .cls-1, .cls-3 {
        fill-rule: evenodd;
      }

      .cls-2 {
        fill: none;
      }

      .cls-3 {
        fill: url(#linear-gradient);
      }
    </style>
    <linearGradient id="linear-gradient" x1="0" y1="319" x2="638" y2="319" gradientUnits="userSpaceOnUse">
      <stop offset="0" stop-color="#209494"/>
      <stop offset=".36" stop-color="#1f7288"/>
      <stop offset="1" stop-color="#2b2968"/>
    </linearGradient>
  </defs>
  <g>
    <path class="cls-1" d="M469.67,394.99c-9.1-11.97-19.05-28.37-23.85-44.66-4.52-23.15,5.86-34.12,27.55-28.05,15.45,4.33,26.37,17.22,34.52,30.62,7.54,17.67-17.9,58.37-36.69,84.47-112.08,54.76-255.78,30.14-318.51-7.77-25.72-29.39-35.37-59.87-26.29-87.87,35.84-26.58,76.92-21.45,118.53,17.74-25.46-5.44-51.39-5.66-71.65,1.55-46.98,30.72,6.74,79.7,46.31,49.88,48.33-30.25,101.02-42.43,160.7-25.46,16.88,5.01,34.62,12.41,53.06,23.68,13.48,8.42,26.37,9.51,37.19,4.01,10.99-5.59,15.34-13.91,18.35-25.24,2.74-10.32,3.26-20.48.57-30.43-4.92-15.62-14.78-18.5-21.31-8.88-6.69,9.86.8,34.23,1.52,46.42h0ZM264.71,430.12c32.18,1.73,61.6.43,84.76-7.83,3.09-1.09,2.52-.92-.34-1.71-32.74-9.06-60.14-5.2-84.24,7.04-4.13,2.1-5.63,2.22-.19,2.5h0Z"/>
    <path class="cls-1" d="M297.97,410c24.38-38.4,49.64-75.22,85.5-93.52,20.98-7.55,37.5-8.03,45.38,5.16,8.02,13.42,2.26,28.53-2.07,42.29-7.34,23.3-18.66,44.57-31.73,64.78-11.81,7.5-19.3,14.67-20.48,21.38-69.14,12.37-150.86.62-183.86-9.16,2.06-8.81,8.02-10.16,18.19-11.32,17.42-1.16,35.38-.34,53.3.35.57.06,1.39.12,2.51.18,18.81,1.01,36.68.98,52.91-.86,6.84-.75,13.57-1.88,20.17-3.5l.52-.13.75-.19c3.59-.91,7.07-1.96,10.41-3.15.73-.26,1.26-.45,1.6-.6,1.61-.6,3.21-1.22,4.79-1.89,21.03-10,36.61-24.99,47.21-44.53,9.18-29.5-18.14-38.35-43.64-18.7l-61.46,53.44h0Z"/>
    <path class="cls-1" d="M440.75,290.21c6.93,0,12.56,5.29,12.56,11.82s-5.62,11.82-12.56,11.82-12.56-5.29-12.56-11.82,5.62-11.82,12.56-11.82h0Z"/>
    <path class="cls-1" d="M416.85,427.69c6.94,0,12.56,5.29,12.56,11.82s-5.62,11.82-12.56,11.82-12.56-5.29-12.56-11.82,5.62-11.82,12.56-11.82h0Z"/>
    <path class="cls-1" d="M389.59,434.3c6.07,0,10.99,4.63,10.99,10.34s-4.92,10.35-10.99,10.35-11-4.63-11-10.35,4.92-10.34,11-10.34h0Z"/>
  </g>
  <path class="cls-3" d="M93.46,225.53L0,319l93.46,93.46v132.07h132.07l93.47,93.46,93.47-93.46h132.07v-132.07l93.47-93.46-93.47-93.47V93.47h-132.07L319,0l-93.47,93.47H93.46v132.07h0ZM314.14,125.57c1.49,16.92,10.18,32.86,22.94,48.25,25.63,21.03,69.03,34.99,102.37,57.76,24.99,17.07,40.43,33.45,53.39,61.79,24.99,54.63,6.09,97.33-30.63,138.46-4.56,1.25-9.88,4.76-14.46,5.89-93.19,23.21-188.1,23.1-257.63,3.02-14.2-4.1-22.57-7.51-33.16-17.99-48.01-47.48-41.82-122.1,14.14-176.94,36.31-33.35,81.58-41.47,119.56-71.79,12.62-15.19,21.09-31.22,23.46-48.46h0Z"/>
  <path class="cls-2" d="M314.14,125.57c1.49,16.92,10.18,32.86,22.94,48.25,25.63,21.03,69.03,34.99,102.37,57.76,24.99,17.07,40.43,33.45,53.39,61.79,20.43,44.65,11.73,82.93-12.18,117.9-13.57,19.89-27.66,25.95-50.13,30.79-87.34,18.86-175.41,17.46-240.41-1.31-14.87-4.29-23.41-8.03-34.37-19.2-46.7-47.53-40.13-121.35,15.35-175.73,36.31-33.35,81.58-41.47,119.56-71.79,12.62-15.19,21.09-31.22,23.46-48.46h0Z"/>
</svg>