<?xml version="1.0" encoding="UTF-8"?>
<svg id="Layer_1" data-name="Layer 1" xmlns="http://www.w3.org/2000/svg" viewBox="0 0 500 147.78">
  <defs>
    <style>
      .cls-1 {
        fill: #008269;
      }
    </style>
  </defs>
  <rect class="cls-1" width="34.11" height="146.85"/>
  <polygon class="cls-1" points="118.02 .23 118.02 56.48 73.07 56.48 43.34 86.45 118.26 86.45 118.26 146.85 152.37 146.85 152.37 0 118.26 0 118.02 .23"/>
  <path class="cls-1" d="M315.12,68.24c13.14-7.38,17.28-17.52,16.83-31.35-.46-17.06-10.6-36.2-41.26-36.2h-102.82v146.85h107.65c43.57-1.16,60.86-64.31,19.6-79.3ZM287.89,121.25l-65.1.54V27.87h62.97s12.94.81,12.94,14.54-15.08,15.08-15.08,15.08h-23.47l-28.55,29.62,56.03-1.07c-1.33.27,17.08,2.14,17.08,18.41s-16.81,16.81-16.81,16.81Z"/>
  <polygon class="cls-1" points="425.08 117.8 399.49 117.8 399.49 1.16 365.84 1.16 365.84 147.78 366.07 147.78 425.31 147.78 470.26 147.78 500 117.8 425.08 117.8"/>
</svg>