<svg xmlns="http://www.w3.org/2000/svg" width="320" height="320" viewBox="0 0 320 320"><path d="M342.65,364H331v8h11.65A10.36,10.36,0,0,1,353,382.35V386H320V341h-8v53h49V382.35A18.37,18.37,0,0,0,342.65,364Z" transform="translate(-90 -90)"/><path d="M293,395.35a6.65,6.65,0,0,1-6.65,6.65H283v8h3.35A14.66,14.66,0,0,0,301,395.35V369h-8Z" transform="translate(-90 -90)"/><path d="M253.54,357.7,250.61,364c1.09.63,2.32,1.36,3.64,2.19,5.41,3.37,12.29,8.27,16.44,13.51a4.18,4.18,0,0,1-2.65,6.75,51.4,51.4,0,0,1-8,.57h-6.09a12.92,12.92,0,0,1-12.81-11.35V369h-8v16a1,1,0,0,1-1,1h-10a7.15,7.15,0,0,1-7.05-6V369H207v9.85a15.43,15.43,0,0,0,.1,1.67v5.23a.26.26,0,0,1-.26.25h-1.75a10.09,10.09,0,0,1-10-8.77V369H187v6.91a16.48,16.48,0,0,0,.1,1.87V385a1,1,0,0,1-1,1h-4a7.16,7.16,0,0,1-7.15-7.15V369h-8v9.85s0,.1,0,.15h0v10.5a9.51,9.51,0,0,1-13.75,8.5A9.27,9.27,0,0,1,149,386.48,32.58,32.58,0,0,1,151,381.9L144,378a39.63,39.63,0,0,0-2.59,5.76A17.08,17.08,0,0,0,157.5,407a17.53,17.53,0,0,0,17.31-14.9h0a15.08,15.08,0,0,0,7.34,1.91h4a9,9,0,0,0,7.53-4.1,18,18,0,0,0,11.45,4.1h1.75a8.24,8.24,0,0,0,6.33-3,15.07,15.07,0,0,0,9,3h10a9,9,0,0,0,7.75-4.44,20.79,20.79,0,0,0,14,5.44H260a58.75,58.75,0,0,0,9.29-.67A12.18,12.18,0,0,0,277,374.71c-3.72-4.7-9.11-9-14.1-12.46l19.64-9v-8.8l-27.73,12.66Z" transform="translate(-90 -90)"/><circle cx="253" cy="315" r="5"/><circle cx="207" cy="268" r="5"/><circle cx="143" cy="315" r="5"/><circle cx="130" cy="315" r="5"/><circle cx="108" cy="267" r="5"/><circle cx="95" cy="267" r="5"/><circle cx="102" cy="257" r="5"/><path d="M245.67,227.09c-2.64,2.09-5.16,4.35-7.94,6.23-10.34,7-22.2,10.14-34.16,12.8a75.7,75.7,0,0,1-44.7-3.45c-2.65-1-5.65-2.19-6-5.4-.42-3.4,2.5-5.07,4.89-6.72,3.38-2.32,7.23-3.75,10.93-5.47a67.38,67.38,0,0,0,28-23.47c4.78-7.06,6-15,5.82-23.35-.25-12.6-.24-25.21-.29-37.81q-.08-20.64-.06-41.28c0-7.32,5-10.9,11.91-8.35a94.75,94.75,0,0,1,29.06,17.42c.54.46,1.11.87,1.67,1.31,3.17,1.6,5.36,4.36,7.57,6.94,9.75,11.43,16.33,24.45,18.81,39.35,2.64,15.89-.05,31-6.68,45.61a91.7,91.7,0,0,1-15.27,22.94C248.2,225.5,247.29,226.78,245.67,227.09Z" transform="translate(-90 -90)" fill="#fec50a"/><path d="M245.67,227.09c7.26-7.52,13.53-15.76,17.85-25.33,13.33-29.53,9.82-57.07-9.91-82.65-2.66-3.46-6-6.33-8.85-9.56,5.25-3.63,10.58-7.15,16.1-10.37,8.8-5.13,18.47-7.2,28.4-8.27,11.65-1.25,23.23-.94,34.55,2.51,7.84,2.38,14.66,6.7,21.11,11.59,3.36,2.54,3,3.83-.87,5.38-22.81,9.09-37.11,25.73-42.46,49.56-3.32,14.8,1.22,28.34,8.77,41.15s19.28,20.35,32.47,25.94c4.13,1.74,5.54,4.54.88,7.83-6.07,4.31-13,6.94-20.07,9C294.69,252.11,268.54,247.21,245.67,227.09Z" transform="translate(-90 -90)" fill="#ed2327"/><path d="M268,272.81c9.19.08,16.75,3.48,22.42,10.87,1.07,1.39,1.2,2.34-.64,3a10.44,10.44,0,0,0-1.45.83c-1.77,1-3.45,2.6-5.33,2.91-2,.32-2.55-2.4-4-3.57a17.32,17.32,0,0,0-27.77,9.93c-1.35,6.67-.14,12.86,5.16,17.57,5.08,4.51,11.1,5.23,17.49,3.36a13.3,13.3,0,0,0,7.54-5.41c.74-1.09,1.27-1.28,2.39-.57,2.11,1.35,4.27,2.63,6.5,3.77,1.4.71,1.06,1.35.36,2.32-5.46,7.57-13,11.13-22.18,11.32a27.23,27.23,0,0,1-27.3-20c-3.64-12.87,1.36-26.06,12.41-32.66A27.85,27.85,0,0,1,268,272.81Z" transform="translate(-90 -90)"/><path d="M170.05,296c0-2.13.73-4.93-.35-6.19-1.25-1.48-4.18-.18-6.33-.53-2.88-.47-3.84.7-3.39,3.42,0,.09-.19.24-.29.35-9.57-8.44-21-4.46-26.18,1.78a22.07,22.07,0,0,0,1.08,28.94c6.23,6.46,18,7.69,25.23.31.39,4.09.39,4.09,4.5,4.09a26.41,26.41,0,0,1,3.33,0c2,.26,2.47-.47,2.46-2.42C170,315.83,170.06,305.9,170.05,296Zm-20.81,23.49c-6.25,0-10.56-4.4-10.54-10.77s4.36-10.82,10.56-10.82,10.79,4.58,10.75,11A10.3,10.3,0,0,1,149.24,319.47Z" transform="translate(-90 -90)"/><path d="M335.76,291.46c0-1.61-.26-2.39-2.1-2.21a30.26,30.26,0,0,1-5.55,0c-1.94-.18-2.77.44-2.44,2.42a8.8,8.8,0,0,1-.11,1.74c-6.7-6.91-17.65-6.49-24.14-.77-7.74,6.81-9.49,19.22-3.69,27.86,3.13,4.65,7.33,7.76,13.08,8.49a17.93,17.93,0,0,0,15-4.86c-1.27,4.17,1,4.27,3.63,4a21.41,21.41,0,0,1,4.16,0c1.82.2,2.13-.59,2.13-2.22Q335.66,308.71,335.76,291.46Zm-20.6,28c-6.41,0-10.8-4.4-10.75-10.87,0-6.3,4.47-10.76,10.68-10.73s10.59,4.46,10.6,10.79S321.43,319.44,315.16,319.48Z" transform="translate(-90 -90)"/><path d="M383.88,293.1c5.44-5.28,11.31-6.1,17.43-3.66s8.56,7.67,8.63,14c.07,7.53,0,15,.06,22.58,0,1.77-.59,2.24-2.24,2.13-2.49-.18-5.71.75-7.27-.49s-.5-4.69-.55-7.16c-.09-4.92,0-9.85,0-14.77s-2.49-7.85-6.87-8.12c-5-.3-8.66,2.47-8.91,7.46-.33,6.86-.25,13.74-.19,20.61,0,1.94-.5,2.69-2.48,2.46-2.46-.29-5.75,1.07-7.17-.59-1.22-1.41-.44-4.6-.44-7,0-14.68,0-29.36-.06-44,0-2.25.63-2.95,2.8-2.74s5.35-.7,6.73.46c1.63,1.38.49,4.53.55,6.91C384,285,383.88,288.74,383.88,293.1Z" transform="translate(-90 -90)" fill="#010101"/><path d="M355.18,329.19c-6.43-.12-11.88-1.8-15.51-7.41-.95-1.47-.78-2.26.81-2.92a16.38,16.38,0,0,0,2.43-1.33c2.37-1.48,4.43-3.28,6.7.59,1.31,2.25,6.28,2.5,8.82,1.32a2.74,2.74,0,0,0,1.78-2.27,2.44,2.44,0,0,0-1.58-2.66c-1.61-.71-3.28-1.27-4.93-1.84-2.19-.76-4.46-1.32-6.58-2.22-4.09-1.73-6.6-4.79-6.77-9.35a11,11,0,0,1,5.33-10.34c7.33-4.63,18.11-2.74,23.07,4,.91,1.25,1.09,2-.55,2.67a15.46,15.46,0,0,0-2.69,1.44c-2.27,1.45-4.2,2.9-6.56-.34-1.3-1.79-4-1.75-6.23-.86a2.82,2.82,0,0,0-2,2.41,2.47,2.47,0,0,0,1.76,2.56c1.43.63,2.92,1.16,4.41,1.65,2.11.69,4.29,1.19,6.36,2,4.49,1.71,7.12,5,7.36,9.83a10.92,10.92,0,0,1-5.94,10.81A20.64,20.64,0,0,1,355.18,329.19Z" transform="translate(-90 -90)"/><path d="M126.6,294.37c0,5.38-.13,10.76,0,16.14.36,12.79-9,19.08-20.22,18.64-6.57-.25-12.06-2.63-15.75-8.4-.84-1.32-1.11-2.24.63-2.94a20,20,0,0,0,2.44-1.34c1.44-.83,2.79-2,4.35-2.41,2-.47,2.16,2,3.52,2.85a10.87,10.87,0,0,0,10.63.76c3.26-1.48,3.75-4.49,3.73-7.73,0-11.23,0-22.45-.06-33.68,0-1.95.52-2.61,2.47-2.45a39.07,39.07,0,0,0,6.12,0c1.77-.14,2.17.51,2.15,2.19C126.54,282.12,126.6,288.24,126.6,294.37Z" transform="translate(-90 -90)"/><path d="M220.84,318.68c5.52,0,10.33.06,15.14,0,1.58,0,2,.45,2,2,.13,7.48.18,7.48-7.16,7.48-7.06,0-14.12-.06-21.17,0-1.81,0-2.3-.46-2.37-2.31a11.91,11.91,0,0,1,2.59-8.16c4.62-6,8.93-12.29,13.73-19-4.59,0-8.7-.09-12.8,0-2,.07-2.88-.28-2.83-2.64.15-6.87,0-6.87,6.93-6.87,6.68,0,13.37,0,20.05,0,1.63,0,2.15.31,2.26,2.09a11.93,11.93,0,0,1-2.65,8.43C230,305.79,225.66,312,220.84,318.68Z" transform="translate(-90 -90)"/><path d="M190.94,298.76c-4.78,0-9-.07-13.26,0-1.61,0-2.39-.22-2.21-2.08.23-2.38-.72-5.54.49-7s4.54-.43,6.92-.45c6.5-.06,13,0,19.5-.06,1.64,0,2.18.33,2.25,2.12a11.79,11.79,0,0,1-2.56,8.17c-4.69,6.08-9.07,12.41-13.93,19.14,5.16,0,9.84.09,14.5-.05,2-.06,2.9.29,2.64,2.53s.69,5.14-.43,6.46c-1.33,1.56-4.36.48-6.65.5-7,.08-14.11,0-21.17.07-1.78,0-2.37-.4-2.41-2.29A11.73,11.73,0,0,1,177,318C181.73,311.86,186.09,305.51,190.94,298.76Z" transform="translate(-90 -90)"/></svg>