<svg id="Layer_1" data-name="Layer 1" xmlns="http://www.w3.org/2000/svg" viewBox="0 0 604 508.47"><defs><style>.cls-1{fill:#4dae45;}.cls-1,.cls-3{fill-rule:evenodd;}.cls-2,.cls-3{fill:#145ba4;}</style></defs><title>MCB Logo Vector</title><path class="cls-1" d="M199.05,718.19H797.11v36H199.05Zm0,0M484.41,494.6a70.85,70.85,0,0,0-43.34-64.12A576.05,576.05,0,0,0,208,381.56l-6.64,0a82.63,82.63,0,0,0-2.09,18.3l-.22,143.78,285.48-.11Zm27.33,0a70.86,70.86,0,0,1,43.33-64.12,576.19,576.19,0,0,1,233.09-48.92l6.64,0a82.63,82.63,0,0,1,2.09,18.3l.22,143.78-285.48-.11ZM497.93,376.07a647.81,647.81,0,0,0-242.28-66.21c-18.78,13.38-33.46,28.33-43.11,44.43A602.44,602.44,0,0,1,497.93,428.1a603.66,603.66,0,0,1,285.69-73.81c-9.67-16.1-24.34-31.05-43.11-44.43A649.37,649.37,0,0,0,497.93,376.07Zm.29-30.58a674.33,674.33,0,0,1,201.16-59.08c-53.1-25-123.73-40.64-201.3-40.64s-148.2,15.66-201.29,40.64A675.93,675.93,0,0,1,498.22,345.49Z" transform="translate(-198 -245.77)"/><path class="cls-2" d="M418.59,586.3c0-12.21,22.48-5.6,22.48-11.18,0-1.57-1.07-2.09-4-2.09-10.44,0-25.7.34-45.23.34H366.92l-42.55,71.77-43.11-71.77H255.83c-19.54,0-34.8-.34-45.24-.34-3,0-4,.52-4,2.09,0,5.58,22.48-1,22.48,11.18v76.84c0,28.43-31.06,20.75-31.06,26.7,0,1.58,1.87,2.27,5.08,2.27,10.71,0,20.62-.35,30.27-.35s19.53.35,30.25.35c3.21,0,5.09-.69,5.09-2.27,0-6-31.05,1.73-31.05-26.7V591.88h.53l60.23,98.65c.79,1,1.6,2.63,4,2.63,1.86,0,2.41-1,3.47-2.63l58.64-99.71h.53v88c0,12.21-22.48,5.58-22.48,11.18,0,1.55,1.06,2.09,4,2.09,10.45,0,25.7-.35,45.25-.35s34.79.35,45.23.35c2.94,0,4-.54,4-2.09,0-5.6-22.48,1-22.48-11.18V586.3" transform="translate(-198 -245.77)"/><path class="cls-2" d="M613.48,650.73c0-1.56-.8-2.62-3-2.62-5.08,0-3,5.76-12.32,15.72-15.26,16-38.26,26.53-56.75,26.53-26.5,0-41.48-13.62-41.48-57.8,0-31.25,10.43-57.8,41.48-57.8,20.35,0,38.82,11.71,51.67,25.33,15.26,16.23,12.32,21.64,17.4,21.64,2.42,0,2.42-1.21,2.42-3.14V576.86c0-2.77-1.88-3.49-3.76-3.49-6.15,0-1.88,8-11.25,8-12.84,0-30-10.83-60-10.83-50.87,0-96.92,24.11-96.92,62s41.23,62,98,62c28.92,0,50.07-9.27,61.31-9.27,7.5,0,5.09,6.47,10.17,6.47,1.87,0,3-1,3-3.3V650.73" transform="translate(-198 -245.77)"/><path class="cls-3" d="M709.64,630.37c27.3,0,33.46,7.16,33.46,28.46,0,27.07-7.77,28.82-32.11,28.82-10.73,0-13.4-1.93-13.4-6.3v-51h12m-65.58,48.47c0,12.21-22.5,5.58-22.5,11.18,0,1.55,1.06,2.09,4,2.09,10.46,0,25.71-.35,45.25-.35,19.27,0,38,.35,57.57.35,49.52,0,73.61-11.89,73.61-35.1,0-22.7-37-27.77-71.48-28.11v-.69c41.48,0,62.91-10.48,62.91-26.73,0-15.53-16.87-28.45-69.07-28.45-17.41,0-34.54.34-53.54.34-19.54,0-34.79-.34-45.25-.34-3,0-4,.52-4,2.09,0,5.58,22.5-1,22.5,11.18Zm53.53-101.9h15.8c19.27,0,23.3,3.66,23.3,23.57,0,23.06-7,25.66-26.51,25.66H697.59Z" transform="translate(-198 -245.77)"/></svg>