<?xml version="1.0" encoding="UTF-8"?>
<svg id="Layer_1" data-name="Layer 1" xmlns="http://www.w3.org/2000/svg" viewBox="0 0 638 638.01">
  <defs>
    <style>
      .cls-1, .cls-2, .cls-3 {
        fill: #fff;
      }

      .cls-2, .cls-4, .cls-5, .cls-6 {
        stroke-miterlimit: 2.41;
      }

      .cls-2, .cls-5 {
        stroke: #5b026a;
      }

      .cls-2, .cls-5, .cls-6 {
        stroke-width: .41px;
      }

      .cls-3, .cls-4, .cls-5, .cls-7 {
        fill-rule: evenodd;
      }

      .cls-4 {
        stroke-width: 1.25px;
      }

      .cls-4, .cls-6 {
        fill: none;
        stroke: #015f27;
      }

      .cls-5 {
        fill: #5b026a;
      }

      .cls-7 {
        fill: #015f27;
      }
    </style>
  </defs>
  <path class="cls-1" d="M319,0c176.19,0,319,142.82,319,319s-142.81,319.01-319,319.01S0,495.18,0,319,142.83,0,319,0h0Z"/>
  <path class="cls-5" d="M27.67,319.28C27.67,158.41,158.06,28.02,318.92,28.02s291.26,130.39,291.26,291.26-130.4,291.26-291.26,291.26S27.67,480.14,27.67,319.28h0Z"/>
  <path class="cls-2" d="M130.85,319.28c0-103.87,84.2-188.07,188.07-188.07s188.06,84.2,188.06,188.07-84.2,188.07-188.06,188.07-188.07-84.2-188.07-188.07h0Z"/>
  <path class="cls-6" d="M141.93,319.28c0-97.76,79.25-177,177-177s176.99,79.24,176.99,177-79.25,177-176.99,177-177-79.25-177-177h0Z"/>
  <polygon class="cls-7" points="201.08 419.09 185.62 382.47 228.59 301.4 243.24 301.4 261.8 301.4 276.45 301.4 319.43 382.47 303.96 419.09 201.08 419.09 201.08 419.09"/>
  <polygon class="cls-7" points="287.96 172.05 233.06 283.74 281.78 283.74 320.05 209.69 358.34 283.74 407.05 283.74 352.16 172.05 287.96 172.05 287.96 172.05"/>
  <polygon class="cls-7" points="336.24 419.09 320.78 382.47 363.75 301.4 378.4 301.4 396.96 301.4 411.61 301.4 454.59 382.47 439.12 419.09 336.24 419.09 336.24 419.09"/>
  <path class="cls-3" d="M487.58,154.24l9.35-28.16-27.12,12.15,17.77,16.01h0ZM426.57,138.15l5.62-6.25,5.15,4.63,60.34-24.36,14.79,13.32-18.1,62.4,5.14,4.63-5.62,6.24-26.17-23.56,5.62-6.25,7.77,6.99,4-12.62-24-21.61-12.21,5.22,7.85,7.06-5.63,6.25-24.54-22.11h0Z"/>
  <polygon class="cls-3" points="500.21 210.3 508.11 207.43 511.56 216.89 558.61 199.77 555.16 190.3 563.06 187.42 574.1 217.78 535.74 266.12 577.3 251.13 573.8 241.54 581.71 238.66 593.43 270.85 585.52 273.71 582.29 264.82 527.33 284.83 519.98 264.63 559.42 215.11 516.54 230.59 519.82 239.61 511.92 242.49 500.21 210.3 500.21 210.3"/>
  <polygon class="cls-3" points="341.03 113.45 343.52 103.48 402.03 68.1 369.74 60.05 366.51 73.01 353.19 69.69 358.39 48.85 422.72 64.88 420.23 74.86 361.02 110.06 396.37 118.88 399.74 105.37 413.05 108.68 407.72 130.08 341.03 113.45 341.03 113.45"/>
  <polygon class="cls-3" points="248.02 124.97 246.56 116.69 256.49 114.94 247.79 65.62 237.87 67.37 236.4 59.1 307.21 46.61 310.76 66.76 297.6 69.08 295.52 57.21 264.18 62.74 267.71 82.79 280.27 80.58 278.76 72.02 290.12 70.01 294.56 95.13 283.19 97.13 281.73 88.86 269.17 91.07 272.87 112.04 304.2 106.52 301.96 93.82 315.13 91.51 318.82 112.48 248.02 124.97 248.02 124.97"/>
  <polygon class="cls-3" points="169.63 176.33 164.69 169.53 172.85 163.61 143.41 123.1 135.26 129.02 130.31 122.22 188.48 79.96 200.5 96.51 189.69 104.36 182.6 94.62 156.87 113.32 168.84 129.79 179.16 122.29 174.04 115.27 183.38 108.49 198.37 129.12 189.04 135.9 184.1 129.09 173.79 136.59 186.3 153.82 212.04 135.12 204.47 124.7 215.27 116.84 227.79 134.07 169.63 176.33 169.63 176.33"/>
  <polygon class="cls-3" points="156.23 187.74 141.5 219.34 133.88 215.77 137.79 207.41 92.49 186.28 135.96 231.21 129.49 245.08 67.49 239.89 112.74 261.13 116.38 253.3 124 256.87 110.24 286.36 102.62 282.8 106.79 273.88 61.41 252.73 57.25 261.64 49.62 258.09 64.77 225.62 119.4 231.13 80.16 192.61 95.61 159.47 103.24 163.02 99.08 171.94 144.45 193.1 148.61 184.19 156.23 187.74 156.23 187.74"/>
  <path class="cls-3" d="M198.44,486.5c4.27,3.33,7.24,6.04,8.9,8.13,1.72,2.15,3.05,4.44,3.99,6.92.95,2.48,1.14,5.04.61,7.71-.48,2.71-1.49,5.04-3.01,7.02-5.45,6.96-13.06,7.5-22.83,1.61,4.47,3.48,7,7.6,7.61,12.34.71,4.74-.33,8.91-3.13,12.49-2.03,2.6-4.72,4.33-8.07,5.2-3.24.87-6.54.81-9.9-.15-3.29-.92-6.42-2.37-9.38-4.37-2.9-1.94-6.26-4.42-10.09-7.41l-30.33-23.71,5.23-6.68,7.85,6.13,30.76-39.39-7.84-6.13,5.17-6.62,34.46,26.91h0ZM179.77,482.58l-12.36,15.83,7.66,5.98c2.61,2.04,4.71,3.57,6.29,4.56,1.68,1,3.34,1.59,4.96,1.75,1.66.11,3.29-.2,4.88-.93,1.66-.68,2.95-1.6,3.88-2.78,1.3-1.66,2.03-3.39,2.18-5.16.26-1.77-.1-3.42-1.1-4.9-.93-1.43-2.1-2.78-3.48-4.02-1.39-1.25-2.8-2.41-4.2-3.51l-3.25-2.55-5.46-4.26h0ZM157.75,528.92c2.99,2.34,5.27,3.89,6.85,4.63,1.63.82,3.33,1.27,5.09,1.37,1.82.17,3.47-.09,4.92-.77,1.53-.63,2.84-1.66,3.95-3.08,2.45-3.15,3.06-6.02,1.82-8.65-1.23-2.63-2.4-4.49-3.5-5.58-1.03-1.04-2.63-2.41-4.81-4.11l-1.14-.9-8.71-6.81-13.28,17.01,8.81,6.88h0Z"/>
  <path class="cls-3" d="M259.25,553.35l-3.44-29.47-19.45,22.48,22.88,6.99h0ZM197.16,564.55l2.46-8.04,6.62,2.03,44.39-47.59,19.04,5.83,9.97,64.2,6.61,2.02-2.46,8.04-33.68-10.29,2.47-8.04,9.99,3.06-1.7-13.12-30.9-9.45-8.86,9.89,10.1,3.08-2.46,8.04-31.59-9.65h0Z"/>
  <polygon class="cls-3" points="311.51 592.24 310.49 583.89 320.5 582.66 314.39 532.96 304.38 534.2 303.36 525.84 335.42 521.91 373.89 570.17 368.63 526.31 358.5 527.54 357.48 519.2 391.47 515.03 392.49 523.38 383.09 524.52 390.22 582.57 368.89 585.19 329.52 535.62 334.96 580.88 344.48 579.71 345.5 588.06 311.51 592.24 311.51 592.24"/>
  <polygon class="cls-3" points="448.87 560.67 443.81 553.96 451.77 547.96 421.62 507.98 413.67 513.97 408.61 507.26 437.72 485.32 442.77 492.04 434.92 497.96 448.35 515.79 455.28 482.62 448.78 487.51 443.72 480.79 470.49 460.63 475.55 467.34 470.31 471.29 462.7 504.98 501.81 510.25 507.24 506.16 512.3 512.88 484.47 533.85 479.4 527.13 486.29 521.95 449.2 516.91 465.05 537.95 472.9 532.04 477.96 538.74 448.87 560.67 448.87 560.67"/>
  <path class="cls-4" d="M11.42,319.28C11.42,149.44,149.08,11.76,318.93,11.76s307.5,137.68,307.5,307.52-137.67,307.52-307.5,307.52S11.42,489.11,11.42,319.28h0Z"/>
</svg>